<svg width="626" height="629" viewBox="0 0 626 629" fill="none" xmlns="http://www.w3.org/2000/svg">
<path d="M130.5 233C129 233 127.583 232.75 126.25 232.25C124.917 231.75 123.167 230.25 121 227.75C118.833 225.25 115.667 221.167 111.5 215.5C107.333 209.667 101.583 201.5 94.25 191C89.0833 183.5 84.6667 177.333 81 172.5C77.5 167.667 74.1667 164 71 161.5C68 158.833 64.75 157 61.25 156C57.9167 154.833 53.75 154.25 48.75 154.25C47.0833 154.25 45.3333 154.333 43.5 154.5C41.6667 154.667 39.75 154.833 37.75 155L37.5 150.5C47.8333 150 55.8333 149.75 61.5 149.75C66.8333 149.75 71.1667 150.25 74.5 151.25C78 152.083 81.1667 153.833 84 156.5C86.8333 159 89.9167 162.667 93.25 167.5C96.75 172.167 101.25 178.333 106.75 186C113.417 195.333 119.417 203.25 124.75 209.75C130.083 216.25 135.5 221.25 141 224.75C146.667 228.083 153.083 229.833 160.25 230C160.583 230 160.75 230.5 160.75 231.5C160.75 232.5 160.583 233 160.25 233H130.5ZM9 233C8.66667 233 8.5 232.5 8.5 231.5C8.5 230.5 8.66667 230 9 230C15.3333 230 20.0833 229.583 23.25 228.75C26.5833 227.917 28.75 226.25 29.75 223.75C30.9167 221.25 31.5 217.583 31.5 212.75V97C31.5 92.1667 30.9167 88.5833 29.75 86.25C28.75 83.75 26.6667 82.0833 23.5 81.25C20.3333 80.25 15.5833 79.75 9.25 79.75C8.91667 79.75 8.75 79.25 8.75 78.25C8.75 77.25 8.91667 76.75 9.25 76.75C13.25 76.75 17.6667 76.9167 22.5 77.25C27.5 77.4167 32.6667 77.5 38 77.5C43.8333 77.5 49.1667 77.4167 54 77.25C58.8333 76.9167 63.1667 76.75 67 76.75C67.3333 76.75 67.5 77.25 67.5 78.25C67.5 79.25 67.3333 79.75 67 79.75C60.6667 79.75 55.9167 80.25 52.75 81.25C49.5833 82.25 47.4167 84 46.25 86.5C45.25 89 44.75 92.6667 44.75 97.5V212.75C44.75 217.583 45.25 221.25 46.25 223.75C47.25 226.25 49.3333 227.917 52.5 228.75C55.8333 229.583 60.6667 230 67 230C67.3333 230 67.5 230.5 67.5 231.5C67.5 232.5 67.3333 233 67 233C63 233 58.5833 232.917 53.75 232.75C49.0833 232.583 43.8333 232.5 38 232.5C32.6667 232.5 27.5 232.583 22.5 232.75C17.5 232.917 13 233 9 233ZM70.75 153.75L66.25 151.5L98.75 106C106.583 95.1667 110.417 88.0833 110.25 84.75C110.083 81.4167 105.583 79.75 96.75 79.75C96.4167 79.75 96.25 79.25 96.25 78.25C96.25 77.25 96.4167 76.75 96.75 76.75C100.75 76.75 104.75 76.9167 108.75 77.25C112.75 77.4167 118.083 77.5 124.75 77.5C131.083 77.5 136 77.4167 139.5 77.25C143.167 76.9167 146.667 76.75 150 76.75C150.5 76.75 150.75 77.25 150.75 78.25C150.75 79.25 150.5 79.75 150 79.75C143.833 79.75 138.417 80.6667 133.75 82.5C129.25 84.1667 124.833 87.0833 120.5 91.25C116.333 95.25 111.583 100.75 106.25 107.75L70.75 153.75ZM246.529 236C234.529 236 223.613 233.917 213.779 229.75C204.113 225.417 195.779 219.5 188.779 212C181.946 204.5 176.613 195.917 172.779 186.25C169.113 176.417 167.279 166 167.279 155C167.279 141.5 169.863 129.667 175.029 119.5C180.363 109.333 187.363 100.917 196.029 94.25C204.696 87.4167 214.196 82.3333 224.529 79C234.863 75.6667 245.113 74 255.279 74C267.613 74 278.613 76.25 288.279 80.75C298.113 85.0833 306.446 91 313.279 98.5C320.113 106 325.279 114.5 328.779 124C332.446 133.5 334.279 143.25 334.279 153.25C334.279 164.917 331.946 175.75 327.279 185.75C322.613 195.75 316.196 204.5 308.029 212C300.029 219.5 290.696 225.417 280.029 229.75C269.529 233.917 258.363 236 246.529 236ZM255.529 231C267.196 231 277.779 228.333 287.279 223C296.779 217.5 304.279 209.5 309.779 199C315.446 188.333 318.279 175.417 318.279 160.25C318.279 144.417 315.196 130.5 309.029 118.5C303.029 106.333 294.529 96.8333 283.529 90C272.529 83 259.613 79.5 244.779 79.5C225.446 79.5 210.363 85.5 199.529 97.5C188.696 109.5 183.279 125.833 183.279 146.5C183.279 158.167 184.946 169.167 188.279 179.5C191.779 189.667 196.696 198.667 203.029 206.5C209.529 214.167 217.196 220.167 226.029 224.5C234.863 228.833 244.696 231 255.529 231ZM352.861 236C349.528 236 346.778 235.333 344.611 234C342.445 232.667 341.361 230.583 341.361 227.75C341.361 224.917 342.361 223 344.361 222C346.361 221 348.695 220.5 351.361 220.5C352.195 220.5 353.028 220.5 353.861 220.5C354.861 220.5 355.778 220.5 356.611 220.5C362.778 220.5 368.278 218 373.111 213C378.111 207.833 382.445 201.083 386.111 192.75C389.945 184.25 393.111 174.833 395.611 164.5C398.278 154 400.195 143.333 401.361 132.5C402.695 121.667 403.361 111.417 403.361 101.75C403.361 97.4167 402.778 93.5833 401.611 90.25C400.445 86.9167 398.111 84.3333 394.611 82.5C391.111 80.6667 385.778 79.75 378.611 79.75C378.111 79.75 377.861 79.25 377.861 78.25C377.861 77.25 378.111 76.75 378.611 76.75C379.611 76.75 382.361 76.75 386.861 76.75C391.528 76.75 397.278 76.75 404.111 76.75C411.111 76.75 418.611 76.75 426.611 76.75C434.611 76.75 442.528 76.75 450.361 76.75C458.361 76.75 465.695 76.75 472.361 76.75C479.195 76.75 484.695 76.75 488.861 76.75C493.195 76.75 495.695 76.75 496.361 76.75C496.861 76.75 497.111 77.25 497.111 78.25C497.111 79.25 496.861 79.75 496.361 79.75C490.028 79.75 485.195 80.25 481.861 81.25C478.695 82.0833 476.528 83.75 475.361 86.25C474.361 88.5833 473.861 92.1667 473.861 97V212.75C473.861 217.583 474.361 221.25 475.361 223.75C476.528 226.25 478.695 227.917 481.861 228.75C485.195 229.583 490.028 230 496.361 230C496.861 230 497.111 230.5 497.111 231.5C497.111 232.5 496.861 233 496.361 233C492.528 233 488.111 232.917 483.111 232.75C478.111 232.583 472.861 232.5 467.361 232.5C461.695 232.5 456.445 232.583 451.611 232.75C446.778 232.917 442.445 233 438.611 233C438.111 233 437.861 232.5 437.861 231.5C437.861 230.5 438.111 230 438.611 230C445.111 230 449.945 229.583 453.111 228.75C456.278 227.917 458.361 226.25 459.361 223.75C460.361 221.25 460.861 217.583 460.861 212.75V97.5C460.861 92.3333 460.528 88.6667 459.861 86.5C459.195 84.3333 457.361 83.0833 454.361 82.75C451.361 82.25 446.361 82 439.361 82H427.611C423.111 82 419.445 82.4167 416.611 83.25C413.945 84.0833 412.028 85.9167 410.861 88.75C409.695 91.4167 409.111 95.75 409.111 101.75C409.111 108.417 408.695 116.333 407.861 125.5C407.195 134.667 406.028 144.333 404.361 154.5C402.695 164.5 400.445 174.333 397.611 184C394.945 193.5 391.528 202.25 387.361 210.25C383.195 218.083 378.278 224.333 372.611 229C366.945 233.667 360.361 236 352.861 236ZM13.75 409C10.4167 409 7.66667 408.333 5.5 407C3.33333 405.667 2.25 403.583 2.25 400.75C2.25 397.917 3.25 396 5.25 395C7.25 394 9.58333 393.5 12.25 393.5C13.0833 393.5 13.9167 393.5 14.75 393.5C15.75 393.5 16.6667 393.5 17.5 393.5C23.6667 393.5 29.1667 391 34 386C39 380.833 43.3333 374.083 47 365.75C50.8333 357.25 54 347.833 56.5 337.5C59.1667 327 61.0833 316.333 62.25 305.5C63.5833 294.667 64.25 284.417 64.25 274.75C64.25 270.417 63.6667 266.583 62.5 263.25C61.3333 259.917 59 257.333 55.5 255.5C52 253.667 46.6667 252.75 39.5 252.75C39 252.75 38.75 252.25 38.75 251.25C38.75 250.25 39 249.75 39.5 249.75C40.5 249.75 43.25 249.75 47.75 249.75C52.4167 249.75 58.1667 249.75 65 249.75C72 249.75 79.5 249.75 87.5 249.75C95.5 249.75 103.417 249.75 111.25 249.75C119.25 249.75 126.583 249.75 133.25 249.75C140.083 249.75 145.583 249.75 149.75 249.75C154.083 249.75 156.583 249.75 157.25 249.75C157.75 249.75 158 250.25 158 251.25C158 252.25 157.75 252.75 157.25 252.75C150.917 252.75 146.083 253.25 142.75 254.25C139.583 255.083 137.417 256.75 136.25 259.25C135.25 261.583 134.75 265.167 134.75 270V385.75C134.75 390.583 135.25 394.25 136.25 396.75C137.417 399.25 139.583 400.917 142.75 401.75C146.083 402.583 150.917 403 157.25 403C157.75 403 158 403.5 158 404.5C158 405.5 157.75 406 157.25 406C153.417 406 149 405.917 144 405.75C139 405.583 133.75 405.5 128.25 405.5C122.583 405.5 117.333 405.583 112.5 405.75C107.667 405.917 103.333 406 99.5 406C99 406 98.75 405.5 98.75 404.5C98.75 403.5 99 403 99.5 403C106 403 110.833 402.583 114 401.75C117.167 400.917 119.25 399.25 120.25 396.75C121.25 394.25 121.75 390.583 121.75 385.75V270.5C121.75 265.333 121.417 261.667 120.75 259.5C120.083 257.333 118.25 256.083 115.25 255.75C112.25 255.25 107.25 255 100.25 255H88.5C84 255 80.3333 255.417 77.5 256.25C74.8333 257.083 72.9167 258.917 71.75 261.75C70.5833 264.417 70 268.75 70 274.75C70 281.417 69.5833 289.333 68.75 298.5C68.0833 307.667 66.9167 317.333 65.25 327.5C63.5833 337.5 61.3333 347.333 58.5 357C55.8333 366.5 52.4167 375.25 48.25 383.25C44.0833 391.083 39.1667 397.333 33.5 402C27.8333 406.667 21.25 409 13.75 409ZM280.998 406H177.748C177.415 406 177.248 405.5 177.248 404.5C177.248 403.5 177.415 403 177.748 403C184.081 403 188.831 402.583 191.998 401.75C195.165 400.917 197.248 399.25 198.248 396.75C199.415 394.25 199.998 390.583 199.998 385.75V270C199.998 265.167 199.415 261.583 198.248 259.25C197.248 256.75 195.165 255.083 191.998 254.25C188.831 253.25 184.081 252.75 177.748 252.75C177.415 252.75 177.248 252.25 177.248 251.25C177.248 250.25 177.415 249.75 177.748 249.75H276.748C278.248 249.75 278.998 250.5 278.998 252L279.498 282.25C279.498 282.75 278.998 283 277.998 283C277.165 283 276.748 282.75 276.748 282.25C276.748 273.583 274.498 266.833 269.998 262C265.498 257 259.581 254.5 252.248 254.5H234.998C228.831 254.5 224.165 254.917 220.998 255.75C217.998 256.583 215.915 258.25 214.748 260.75C213.748 263.083 213.248 266.667 213.248 271.5V384.75C213.248 389.417 213.748 392.917 214.748 395.25C215.915 397.583 217.998 399.167 220.998 400C224.165 400.833 228.831 401.25 234.998 401.25H257.998C264.665 401.25 270.415 398.333 275.248 392.5C280.081 386.667 283.081 379 284.248 369.5C284.248 369 284.748 368.833 285.748 369C286.748 369 287.248 369.25 287.248 369.75C286.581 374.083 285.998 379.333 285.498 385.5C285.165 391.5 284.998 397.083 284.998 402.25C284.998 404.75 283.665 406 280.998 406ZM266.998 347.25C266.998 339.75 265.415 334.5 262.248 331.5C259.081 328.5 253.498 327 245.498 327H206.998V322.25H246.248C253.915 322.25 259.248 321 262.248 318.5C265.248 315.833 266.748 311.333 266.748 305C266.748 304.667 267.248 304.5 268.248 304.5C269.248 304.5 269.748 304.667 269.748 305C269.748 309.833 269.665 313.583 269.498 316.25C269.498 318.917 269.498 321.75 269.498 324.75C269.498 328.417 269.581 332.083 269.748 335.75C269.915 339.25 269.998 343.083 269.998 347.25C269.998 347.583 269.498 347.75 268.498 347.75C267.498 347.75 266.998 347.583 266.998 347.25ZM430.549 406C429.049 406 427.632 405.75 426.299 405.25C424.965 404.75 423.215 403.25 421.049 400.75C418.882 398.25 415.715 394.167 411.549 388.5C407.382 382.667 401.632 374.5 394.299 364C389.132 356.5 384.715 350.333 381.049 345.5C377.549 340.667 374.215 337 371.049 334.5C368.049 331.833 364.799 330 361.299 329C357.965 327.833 353.799 327.25 348.799 327.25C347.132 327.25 345.382 327.333 343.549 327.5C341.715 327.667 339.799 327.833 337.799 328L337.549 323.5C347.882 323 355.882 322.75 361.549 322.75C366.882 322.75 371.215 323.25 374.549 324.25C378.049 325.083 381.215 326.833 384.049 329.5C386.882 332 389.965 335.667 393.299 340.5C396.799 345.167 401.299 351.333 406.799 359C413.465 368.333 419.465 376.25 424.799 382.75C430.132 389.25 435.549 394.25 441.049 397.75C446.716 401.083 453.132 402.833 460.299 403C460.632 403 460.799 403.5 460.799 404.5C460.799 405.5 460.632 406 460.299 406H430.549ZM309.049 406C308.715 406 308.549 405.5 308.549 404.5C308.549 403.5 308.715 403 309.049 403C315.382 403 320.132 402.583 323.299 401.75C326.632 400.917 328.799 399.25 329.799 396.75C330.965 394.25 331.549 390.583 331.549 385.75V270C331.549 265.167 330.965 261.583 329.799 259.25C328.799 256.75 326.715 255.083 323.549 254.25C320.382 253.25 315.632 252.75 309.299 252.75C308.965 252.75 308.799 252.25 308.799 251.25C308.799 250.25 308.965 249.75 309.299 249.75C313.299 249.75 317.715 249.917 322.549 250.25C327.549 250.417 332.715 250.5 338.049 250.5C343.882 250.5 349.215 250.417 354.049 250.25C358.882 249.917 363.215 249.75 367.049 249.75C367.382 249.75 367.549 250.25 367.549 251.25C367.549 252.25 367.382 252.75 367.049 252.75C360.715 252.75 355.965 253.25 352.799 254.25C349.632 255.25 347.465 257 346.299 259.5C345.299 262 344.799 265.667 344.799 270.5V385.75C344.799 390.583 345.299 394.25 346.299 396.75C347.299 399.25 349.382 400.917 352.549 401.75C355.882 402.583 360.715 403 367.049 403C367.382 403 367.549 403.5 367.549 404.5C367.549 405.5 367.382 406 367.049 406C363.049 406 358.632 405.917 353.799 405.75C349.132 405.583 343.882 405.5 338.049 405.5C332.715 405.5 327.549 405.583 322.549 405.75C317.549 405.917 313.049 406 309.049 406ZM370.799 326.75L366.299 324.5L398.799 279C406.632 268.167 410.466 261.083 410.299 257.75C410.132 254.417 405.632 252.75 396.799 252.75C396.466 252.75 396.299 252.25 396.299 251.25C396.299 250.25 396.466 249.75 396.799 249.75C400.799 249.75 404.799 249.917 408.799 250.25C412.799 250.417 418.132 250.5 424.799 250.5C431.132 250.5 436.049 250.417 439.549 250.25C443.216 249.917 446.716 249.75 450.049 249.75C450.549 249.75 450.799 250.25 450.799 251.25C450.799 252.25 450.549 252.75 450.049 252.75C443.882 252.75 438.466 253.667 433.799 255.5C429.299 257.167 424.882 260.083 420.549 264.25C416.382 268.25 411.632 273.75 406.299 280.75L370.799 326.75ZM167.25 625.75C167.25 608.417 164.667 596.25 159.5 589.25C154.333 582.417 145.333 579 132.5 579H9C8.66667 579 8.5 578.5 8.5 577.5C8.5 576.5 8.66667 576 9 576C15.3333 576 20.0833 575.583 23.25 574.75C26.5833 573.917 28.75 572.25 29.75 569.75C30.9167 567.25 31.5 563.583 31.5 558.75V443C31.5 438.167 30.9167 434.583 29.75 432.25C28.75 429.75 26.5833 428.083 23.25 427.25C20.0833 426.25 15.3333 425.75 9 425.75C8.66667 425.75 8.5 425.25 8.5 424.25C8.5 423.25 8.66667 422.75 9 422.75C13 422.75 17.5 422.917 22.5 423.25C27.5 423.417 32.6667 423.5 38 423.5C43.8333 423.5 49.0833 423.417 53.75 423.25C58.5833 422.917 63 422.75 67 422.75C67.3333 422.75 67.5 423.25 67.5 424.25C67.5 425.25 67.3333 425.75 67 425.75C60.6667 425.75 55.8333 426.25 52.5 427.25C49.3333 428.083 47.25 429.75 46.25 432.25C45.25 434.583 44.75 438.167 44.75 443V558.25C44.75 563.417 45.0833 567.083 45.75 569.25C46.4167 571.417 48.1667 572.75 51 573.25C54 573.583 59 573.75 66 573.75H112.75C120.25 573.75 125.583 573.5 128.75 573C131.917 572.5 133.833 571.167 134.5 569C135.167 566.833 135.5 563.25 135.5 558.25V443C135.5 438.167 135 434.583 134 432.25C133 429.75 130.917 428.083 127.75 427.25C124.583 426.25 119.75 425.75 113.25 425.75C112.75 425.75 112.5 425.25 112.5 424.25C112.5 423.25 112.75 422.75 113.25 422.75C117.083 422.75 121.417 422.917 126.25 423.25C131.083 423.417 136.333 423.5 142 423.5C147.5 423.5 152.75 423.417 157.75 423.25C162.75 422.917 167.167 422.75 171 422.75C171.5 422.75 171.75 423.25 171.75 424.25C171.75 425.25 171.5 425.75 171 425.75C164.667 425.75 159.833 426.25 156.5 427.25C153.333 428.083 151.167 429.75 150 432.25C149 434.583 148.5 438.167 148.5 443V558.75C148.5 564.417 148.75 568.5 149.25 571C149.917 573.333 151.583 574.75 154.25 575.25C157.083 575.75 161.75 576 168.25 576C169.583 576 170.333 576.167 170.5 576.5C170.667 576.833 170.75 577.667 170.75 579C170.75 581.167 170.667 583.667 170.5 586.5C170.5 589.333 170.417 593.667 170.25 599.5C170.25 605.5 170.25 614.25 170.25 625.75C170.25 626.417 169.75 626.75 168.75 626.75C167.75 626.75 167.25 626.417 167.25 625.75ZM222.396 560.75L218.646 557L328.396 439.75L332.396 443.5L222.396 560.75ZM190.396 579C190.063 579 189.896 578.5 189.896 577.5C189.896 576.5 190.063 576 190.396 576C196.73 576 201.48 575.583 204.646 574.75C207.98 573.917 210.146 572.25 211.146 569.75C212.313 567.25 212.896 563.583 212.896 558.75V443C212.896 438.167 212.313 434.583 211.146 432.25C210.146 429.75 208.063 428.083 204.896 427.25C201.73 426.25 196.98 425.75 190.646 425.75C190.313 425.75 190.146 425.25 190.146 424.25C190.146 423.25 190.313 422.75 190.646 422.75C194.646 422.75 199.063 422.917 203.896 423.25C208.896 423.417 214.063 423.5 219.396 423.5C225.23 423.5 230.563 423.417 235.396 423.25C240.23 422.917 244.563 422.75 248.396 422.75C248.73 422.75 248.896 423.25 248.896 424.25C248.896 425.25 248.73 425.75 248.396 425.75C242.063 425.75 237.313 426.25 234.146 427.25C230.98 428.25 228.813 430 227.646 432.5C226.646 435 226.146 438.667 226.146 443.5V558.75C226.146 563.583 226.646 567.25 227.646 569.75C228.646 572.25 230.73 573.917 233.896 574.75C237.23 575.583 242.063 576 248.396 576C248.73 576 248.896 576.5 248.896 577.5C248.896 578.5 248.73 579 248.396 579C244.396 579 239.98 578.917 235.146 578.75C230.48 578.583 225.23 578.5 219.396 578.5C214.063 578.5 208.896 578.583 203.896 578.75C198.896 578.917 194.396 579 190.396 579ZM300.646 579C300.313 579 300.146 578.5 300.146 577.5C300.146 576.5 300.313 576 300.646 576C307.146 576 311.98 575.583 315.146 574.75C318.313 573.917 320.396 572.25 321.396 569.75C322.396 567.25 322.896 563.583 322.896 558.75V443.5C322.896 438.667 322.396 435 321.396 432.5C320.396 430 318.313 428.25 315.146 427.25C311.98 426.25 307.146 425.75 300.646 425.75C300.313 425.75 300.146 425.25 300.146 424.25C300.146 423.25 300.313 422.75 300.646 422.75C304.646 422.75 309.063 422.917 313.896 423.25C318.73 423.417 323.98 423.5 329.646 423.5C334.98 423.5 340.146 423.417 345.146 423.25C350.146 422.917 354.646 422.75 358.646 422.75C358.98 422.75 359.146 423.25 359.146 424.25C359.146 425.25 358.98 425.75 358.646 425.75C352.313 425.75 347.48 426.25 344.146 427.25C340.98 428.083 338.813 429.75 337.646 432.25C336.646 434.583 336.146 438.167 336.146 443V558.75C336.146 563.583 336.646 567.25 337.646 569.75C338.813 572.25 340.98 573.917 344.146 574.75C347.48 575.583 352.313 576 358.646 576C358.98 576 359.146 576.5 359.146 577.5C359.146 578.5 358.98 579 358.646 579C354.646 579 350.146 578.917 345.146 578.75C340.146 578.583 334.98 578.5 329.646 578.5C323.98 578.5 318.73 578.583 313.896 578.75C309.063 578.917 304.646 579 300.646 579ZM505.42 576C505.753 576 505.92 576.5 505.92 577.5C505.92 578.5 505.753 579 505.42 579C501.42 579 496.92 578.917 491.92 578.75C486.92 578.583 481.753 578.5 476.42 578.5C470.753 578.5 465.503 578.583 460.67 578.75C455.837 578.917 451.42 579 447.42 579C447.087 579 446.92 578.5 446.92 577.5C446.92 576.5 447.087 576 447.42 576C453.92 576 458.753 575.583 461.92 574.75C465.087 573.917 467.17 572.25 468.17 569.75C469.17 567.25 469.67 563.583 469.67 558.75V496.75L472.67 498C468.003 498 463.837 498.417 460.17 499.25C456.503 500.083 452.92 501.833 449.42 504.5C446.087 507 442.503 510.833 438.67 516C434.837 521.167 430.337 528.167 425.17 537C418.67 548.167 413.42 556.667 409.42 562.5C405.42 568.333 402.253 572.417 399.92 574.75C397.587 577.083 395.67 578.417 394.17 578.75C392.67 578.917 391.17 579 389.67 579H365.67C365.17 579 364.92 578.5 364.92 577.5C364.92 576.5 365.17 576 365.67 576C372.17 575.833 377.92 574.167 382.92 571C388.087 567.667 393.087 562.75 397.92 556.25C402.753 549.75 407.837 541.667 413.17 532C418.003 523.333 422.42 516.583 426.42 511.75C430.587 506.75 434.92 503.167 439.42 501C443.92 498.667 449.003 497.25 454.67 496.75L456.42 498.5C439.087 498.333 425.92 494.833 416.92 488C408.087 481.167 403.67 472 403.67 460.5C403.67 452.833 405.587 446.167 409.42 440.5C413.253 434.667 418.42 430.167 424.92 427C431.587 423.667 439.087 422 447.42 422C450.92 422 455.587 422.25 461.42 422.75C467.253 423.25 472.253 423.5 476.42 423.5C481.753 423.5 486.837 423.417 491.67 423.25C496.67 422.917 501.17 422.75 505.17 422.75C505.503 422.75 505.67 423.25 505.67 424.25C505.67 425.25 505.503 425.75 505.17 425.75C498.837 425.75 494.087 426.25 490.92 427.25C487.753 428.083 485.587 429.75 484.42 432.25C483.42 434.583 482.92 438.167 482.92 443V558.75C482.92 563.583 483.42 567.25 484.42 569.75C485.587 572.25 487.753 573.917 490.92 574.75C494.253 575.583 499.087 576 505.42 576ZM417.67 454.25C417.67 465.917 421.087 475.583 427.92 483.25C434.92 490.917 445.253 494.75 458.92 494.75C461.087 494.75 463.587 494.667 466.42 494.5C469.253 494.167 471.503 493.75 473.17 493.25L469.67 494.75V443.5C469.67 438.667 468.503 434.917 466.17 432.25C464.003 429.583 461.17 427.75 457.67 426.75C454.337 425.75 450.837 425.25 447.17 425.25C427.503 425.25 417.67 434.917 417.67 454.25Z" fill="black"/>
<path d="M77.992 24.312C77.992 23.0747 77.864 22.136 77.608 21.496C77.352 20.856 76.8187 20.408 76.008 20.152C75.1973 19.896 73.96 19.768 72.296 19.768C72.168 19.768 72.104 19.64 72.104 19.384C72.104 19.128 72.168 19 72.296 19C73.2773 19 74.3867 19.0427 75.624 19.128C76.904 19.1707 78.2693 19.192 79.72 19.192C81.0853 19.192 82.408 19.1707 83.688 19.128C84.968 19.0427 86.0987 19 87.08 19C87.208 19 87.272 19.128 87.272 19.384C87.272 19.64 87.208 19.768 87.08 19.768C85.4587 19.768 84.2213 19.896 83.368 20.152C82.5573 20.3653 82.0027 20.792 81.704 21.432C81.448 22.0293 81.32 22.9467 81.32 24.184V53.816C81.32 55.0533 81.448 55.992 81.704 56.632C82.0027 57.272 82.5573 57.6987 83.368 57.912C84.2213 58.1253 85.4587 58.232 87.08 58.232C87.208 58.232 87.272 58.36 87.272 58.616C87.272 58.872 87.208 59 87.08 59C86.0987 59 84.968 58.9787 83.688 58.936C82.408 58.8933 81.0853 58.872 79.72 58.872C78.2693 58.872 76.904 58.8933 75.624 58.936C74.3867 58.9787 73.2773 59 72.296 59C72.168 59 72.104 58.872 72.104 58.616C72.104 58.36 72.168 58.232 72.296 58.232C73.96 58.232 75.1973 58.1253 76.008 57.912C76.8187 57.6987 77.352 57.272 77.608 56.632C77.864 55.992 77.992 55.0533 77.992 53.816V24.312ZM50.6 38.776V37.56H79.4V38.776H50.6ZM49.064 53.816V24.184C49.064 22.9467 48.9147 22.0293 48.616 21.432C48.36 20.792 47.8267 20.3653 47.016 20.152C46.2053 19.896 44.9893 19.768 43.368 19.768C43.2827 19.768 43.24 19.64 43.24 19.384C43.24 19.128 43.2827 19 43.368 19C44.392 19 45.5227 19.0427 46.76 19.128C48.04 19.1707 49.3627 19.192 50.728 19.192C52.2213 19.192 53.5867 19.1707 54.824 19.128C56.0613 19.0427 57.1707 19 58.152 19C58.2373 19 58.28 19.128 58.28 19.384C58.28 19.64 58.2373 19.768 58.152 19.768C56.5307 19.768 55.3147 19.896 54.504 20.152C53.6933 20.408 53.1387 20.856 52.84 21.496C52.584 22.136 52.456 23.0747 52.456 24.312V53.816C52.456 55.0533 52.584 55.992 52.84 56.632C53.096 57.272 53.6293 57.6987 54.44 57.912C55.2933 58.1253 56.5307 58.232 58.152 58.232C58.2373 58.232 58.28 58.36 58.28 58.616C58.28 58.872 58.2373 59 58.152 59C57.128 59 55.9973 58.9787 54.76 58.936C53.5653 58.8933 52.2213 58.872 50.728 58.872C49.3627 58.872 48.04 58.8933 46.76 58.936C45.48 58.9787 44.328 59 43.304 59C43.2187 59 43.176 58.872 43.176 58.616C43.176 58.36 43.2187 58.232 43.304 58.232C44.9253 58.232 46.1413 58.1253 46.952 57.912C47.8053 57.6987 48.36 57.272 48.616 56.632C48.9147 55.992 49.064 55.0533 49.064 53.816ZM112.924 59.768C109.852 59.768 107.057 59.2347 104.54 58.168C102.065 57.0587 99.932 55.544 98.14 53.624C96.3907 51.704 95.0253 49.5067 94.044 47.032C93.1053 44.5147 92.636 41.848 92.636 39.032C92.636 35.576 93.2973 32.5467 94.62 29.944C95.9853 27.3413 97.7773 25.1867 99.996 23.48C102.215 21.7307 104.647 20.4293 107.292 19.576C109.937 18.7227 112.561 18.296 115.164 18.296C118.321 18.296 121.137 18.872 123.612 20.024C126.129 21.1333 128.263 22.648 130.012 24.568C131.761 26.488 133.084 28.664 133.98 31.096C134.919 33.528 135.388 36.024 135.388 38.584C135.388 41.5707 134.791 44.344 133.596 46.904C132.401 49.464 130.759 51.704 128.668 53.624C126.62 55.544 124.231 57.0587 121.5 58.168C118.812 59.2347 115.953 59.768 112.924 59.768ZM115.228 58.488C118.215 58.488 120.924 57.8053 123.356 56.44C125.788 55.032 127.708 52.984 129.116 50.296C130.567 47.5653 131.292 44.2587 131.292 40.376C131.292 36.3227 130.503 32.76 128.924 29.688C127.388 26.5733 125.212 24.1413 122.396 22.392C119.58 20.6 116.273 19.704 112.476 19.704C107.527 19.704 103.665 21.24 100.892 24.312C98.1187 27.384 96.732 31.5653 96.732 36.856C96.732 39.8427 97.1587 42.6587 98.012 45.304C98.908 47.9067 100.167 50.2107 101.788 52.216C103.452 54.1787 105.415 55.7147 107.676 56.824C109.937 57.9333 112.455 58.488 115.228 58.488ZM157.572 36.984L158.276 36.408C160.708 36.408 162.841 36.8773 164.676 37.816C166.511 38.7547 167.919 40.0347 168.9 41.656C169.924 43.2773 170.436 45.112 170.436 47.16C170.436 49.464 169.903 51.5333 168.836 53.368C167.769 55.2027 166.297 56.6533 164.42 57.72C162.585 58.744 160.516 59.256 158.212 59.256C156.804 59.256 155.247 59.192 153.54 59.064C151.833 58.936 150.233 58.872 148.74 58.872C147.375 58.872 146.052 58.8933 144.772 58.936C143.492 58.9787 142.34 59 141.316 59C141.231 59 141.188 58.872 141.188 58.616C141.188 58.36 141.231 58.232 141.316 58.232C142.937 58.232 144.153 58.1253 144.964 57.912C145.817 57.6987 146.393 57.272 146.692 56.632C146.991 55.992 147.14 55.0533 147.14 53.816V24.184C147.14 22.9467 146.991 22.0293 146.692 21.432C146.436 20.792 145.903 20.3653 145.092 20.152C144.281 19.896 143.065 19.768 141.444 19.768C141.316 19.768 141.252 19.64 141.252 19.384C141.252 19.128 141.316 19 141.444 19C142.425 19 143.535 19.0427 144.772 19.128C146.052 19.1707 147.375 19.192 148.74 19.192C149.849 19.192 151.129 19.128 152.58 19C154.073 18.872 155.289 18.808 156.228 18.808C158.745 18.808 160.751 19.2133 162.244 20.024C163.78 20.792 164.889 21.816 165.572 23.096C166.255 24.376 166.596 25.784 166.596 27.32C166.596 29.752 165.721 31.8 163.972 33.464C162.265 35.128 160.132 36.3013 157.572 36.984ZM154.756 19.64C153.732 19.64 152.9 19.7253 152.26 19.896C151.62 20.024 151.151 20.408 150.852 21.048C150.596 21.688 150.468 22.776 150.468 24.312V36.856L148.548 36.344C149.913 36.4293 151.044 36.4933 151.94 36.536C152.836 36.536 153.348 36.536 153.476 36.536C157.017 36.536 159.513 35.704 160.964 34.04C162.415 32.3333 163.14 30.2427 163.14 27.768C163.14 26.3173 162.863 24.9733 162.308 23.736C161.796 22.4987 160.921 21.5173 159.684 20.792C158.489 20.024 156.847 19.64 154.756 19.64ZM157.316 58.232C160.559 58.232 162.927 57.4 164.42 55.736C165.956 54.0293 166.724 51.704 166.724 48.76C166.724 45.56 165.743 42.936 163.78 40.888C161.817 38.84 159.129 37.7947 155.716 37.752C154.521 37.7093 153.348 37.7093 152.196 37.752C151.044 37.7947 149.892 37.9013 148.74 38.072L150.468 37.368V53.816C150.468 54.8827 150.639 55.7573 150.98 56.44C151.321 57.08 151.983 57.5493 152.964 57.848C153.945 58.104 155.396 58.232 157.316 58.232ZM187.193 37.304L188.153 36.088H201.337L201.785 37.304H187.193ZM218.041 58.232C218.212 58.232 218.297 58.36 218.297 58.616C218.297 58.872 218.212 59 218.041 59C216.846 59 215.609 58.9573 214.329 58.872C213.092 58.7867 211.897 58.744 210.745 58.744C209.422 58.744 208.27 58.7867 207.289 58.872C206.35 58.9573 205.305 59 204.153 59C203.982 59 203.897 58.872 203.897 58.616C203.897 58.36 203.982 58.232 204.153 58.232C206.542 58.232 208.036 57.912 208.633 57.272C209.273 56.632 209.188 55.416 208.377 53.624L193.913 22.52L195.129 21.432L182.777 51.128C181.71 53.7307 181.625 55.5653 182.521 56.632C183.417 57.6987 185.316 58.232 188.217 58.232C188.43 58.232 188.537 58.36 188.537 58.616C188.537 58.872 188.43 59 188.217 59C186.937 59 185.764 58.9573 184.697 58.872C183.63 58.7867 182.286 58.744 180.665 58.744C179.172 58.744 177.956 58.7867 177.017 58.872C176.121 58.9573 175.033 59 173.753 59C173.582 59 173.497 58.872 173.497 58.616C173.497 58.36 173.582 58.232 173.753 58.232C174.905 58.232 175.908 58.0187 176.761 57.592C177.614 57.1653 178.404 56.3973 179.129 55.288C179.897 54.1787 180.708 52.6 181.561 50.552L194.937 18.36C195.022 18.232 195.15 18.168 195.321 18.168C195.534 18.168 195.662 18.232 195.705 18.36L210.553 50.232C211.534 52.3653 212.409 54.0293 213.177 55.224C213.945 56.376 214.713 57.1653 215.481 57.592C216.249 58.0187 217.102 58.232 218.041 58.232ZM253.513 58.232C253.598 58.232 253.641 58.36 253.641 58.616C253.641 58.872 253.598 59 253.513 59C252.489 59 251.337 58.9787 250.057 58.936C248.777 58.8933 247.454 58.872 246.089 58.872C244.638 58.872 243.294 58.8933 242.057 58.936C240.819 58.9787 239.689 59 238.665 59C238.579 59 238.537 58.872 238.537 58.616C238.537 58.36 238.579 58.232 238.665 58.232C240.329 58.232 241.566 58.1253 242.377 57.912C243.187 57.6987 243.721 57.272 243.977 56.632C244.233 55.992 244.361 55.0533 244.361 53.816V37.944L245.129 38.264C243.934 38.264 242.867 38.3707 241.929 38.584C240.99 38.7973 240.073 39.2453 239.177 39.928C238.323 40.568 237.406 41.5493 236.425 42.872C235.443 44.1947 234.291 45.9867 232.969 48.248C231.305 51.1067 229.961 53.2827 228.937 54.776C227.913 56.2693 227.102 57.3147 226.505 57.912C225.907 58.5093 225.417 58.8507 225.033 58.936C224.649 58.9787 224.265 59 223.881 59H217.736C217.608 59 217.544 58.872 217.544 58.616C217.544 58.36 217.608 58.232 217.736 58.232C219.401 58.1893 220.873 57.7627 222.153 56.952C223.475 56.0987 224.755 54.84 225.993 53.176C227.23 51.512 228.531 49.4427 229.897 46.968C231.134 44.7493 232.265 43.0213 233.289 41.784C234.355 40.504 235.465 39.5867 236.617 39.032C237.769 38.4347 239.07 38.072 240.521 37.944L240.969 38.392C236.531 38.3493 233.161 37.4533 230.857 35.704C228.595 33.9547 227.465 31.608 227.465 28.664C227.465 26.7013 227.955 24.9947 228.937 23.544C229.918 22.0507 231.241 20.8987 232.905 20.088C234.611 19.2347 236.531 18.808 238.665 18.808C239.561 18.808 240.755 18.872 242.249 19C243.742 19.128 245.022 19.192 246.089 19.192C247.454 19.192 248.755 19.1707 249.993 19.128C251.273 19.0427 252.425 19 253.449 19C253.534 19 253.576 19.128 253.576 19.384C253.576 19.64 253.534 19.768 253.449 19.768C251.827 19.768 250.611 19.896 249.801 20.152C248.99 20.3653 248.435 20.792 248.137 21.432C247.881 22.0293 247.753 22.9467 247.753 24.184V53.816C247.753 55.0533 247.881 55.992 248.137 56.632C248.435 57.272 248.99 57.6987 249.801 57.912C250.654 58.1253 251.891 58.232 253.513 58.232ZM231.049 27.064C231.049 30.0507 231.923 32.5253 233.673 34.488C235.465 36.4507 238.11 37.432 241.609 37.432C242.163 37.432 242.803 37.4107 243.529 37.368C244.254 37.2827 244.83 37.176 245.257 37.048L244.361 37.432V24.312C244.361 23.0747 244.062 22.1147 243.465 21.432C242.91 20.7493 242.185 20.28 241.289 20.024C240.435 19.768 239.539 19.64 238.601 19.64C233.566 19.64 231.049 22.1147 231.049 27.064Z" fill="black"/>
<path d="M527.232 96.488C527.232 95.2933 527.339 93.992 527.552 92.584C527.723 91.2187 527.979 89.896 528.32 88.616C528.704 87.3787 529.152 86.312 529.664 85.416C529.877 85.032 530.069 84.7973 530.24 84.712C530.411 84.6267 530.709 84.5627 531.136 84.52L537.856 83.752C537.984 83.752 538.069 83.8587 538.112 84.072C538.155 84.328 538.112 84.4773 537.984 84.52C535.68 85.16 533.867 86.184 532.544 87.592C531.221 89.0427 530.261 90.7067 529.664 92.584C529.109 94.504 528.832 96.4667 528.832 98.472C528.832 102.013 529.536 104.915 530.944 107.176C532.395 109.48 534.464 111.187 537.152 112.296C539.84 113.405 543.019 113.96 546.688 113.96C551.125 113.96 554.923 113.256 558.08 111.848C561.28 110.44 563.733 108.52 565.44 106.088C567.147 103.699 568 100.989 568 97.96C568 95.2293 567.232 92.6693 565.696 90.28C564.16 87.8907 561.685 86.0133 558.272 84.648C558.101 84.6053 558.037 84.4773 558.08 84.264C558.123 84.0507 558.208 83.944 558.336 83.944L565.12 84.84C565.632 84.9253 565.973 85.0107 566.144 85.096C566.315 85.1813 566.485 85.416 566.656 85.8C567.381 88.0187 567.893 90.1947 568.192 92.328C568.533 94.4613 568.704 96.424 568.704 98.216C568.704 101.843 568.149 104.893 567.04 107.368C565.931 109.885 564.437 111.912 562.56 113.448C560.725 114.984 558.635 116.093 556.288 116.776C553.984 117.459 551.595 117.8 549.12 117.8C545.621 117.8 542.507 117.224 539.776 116.072C537.088 114.92 534.805 113.341 532.928 111.336C531.051 109.331 529.621 107.048 528.64 104.488C527.701 101.928 527.232 99.2613 527.232 96.488ZM542.4 95.144C544.021 95.144 545.259 95.144 546.112 95.144C547.008 95.1867 547.925 95.208 548.864 95.208C549.845 95.208 550.784 95.1867 551.68 95.144C552.619 95.1013 553.6 95.08 554.624 95.08C554.752 95.08 554.816 95.208 554.816 95.464C554.816 95.72 554.752 95.848 554.624 95.848C552.917 95.9333 551.637 96.5733 550.784 97.768C549.931 98.9627 549.504 101.16 549.504 104.36V115.688H548.288V104.104C548.288 101.032 547.904 98.8987 547.136 97.704C546.368 96.5093 544.789 95.912 542.4 95.912C542.272 95.912 542.208 95.784 542.208 95.528C542.208 95.272 542.272 95.144 542.4 95.144ZM527.232 122.645C527.232 121.792 527.403 121.088 527.744 120.533C528.085 119.978 528.619 119.701 529.344 119.701C530.069 119.701 530.56 119.957 530.816 120.469C531.072 120.981 531.2 121.578 531.2 122.261C531.2 122.474 531.2 122.688 531.2 122.901C531.2 123.157 531.2 123.392 531.2 123.605C531.2 125.184 531.84 126.592 533.12 127.829C534.443 129.109 536.171 130.218 538.304 131.157C540.48 132.138 542.891 132.949 545.536 133.589C548.224 134.272 550.955 134.762 553.728 135.061C556.501 135.402 559.125 135.573 561.6 135.573C562.709 135.573 563.691 135.424 564.544 135.125C565.397 134.826 566.059 134.229 566.528 133.333C566.997 132.437 567.232 131.072 567.232 129.237C567.232 129.109 567.36 129.045 567.616 129.045C567.872 129.045 568 129.109 568 129.237C568 129.493 568 130.197 568 131.349C568 132.544 568 134.016 568 135.765C568 137.557 568 139.477 568 141.525C568 143.573 568 145.6 568 147.605C568 149.653 568 151.53 568 153.237C568 154.986 568 156.394 568 157.461C568 158.57 568 159.21 568 159.381C568 159.509 567.872 159.573 567.616 159.573C567.36 159.573 567.232 159.509 567.232 159.381C567.232 157.76 567.104 156.522 566.848 155.669C566.635 154.858 566.208 154.304 565.568 154.005C564.971 153.749 564.053 153.621 562.816 153.621H533.184C531.947 153.621 531.008 153.749 530.368 154.005C529.728 154.304 529.301 154.858 529.088 155.669C528.875 156.522 528.768 157.76 528.768 159.381C528.768 159.509 528.64 159.573 528.384 159.573C528.128 159.573 528 159.509 528 159.381C528 158.4 528.021 157.269 528.064 155.989C528.107 154.709 528.128 153.365 528.128 151.957C528.128 150.506 528.107 149.162 528.064 147.925C528.021 146.688 528 145.578 528 144.597C528 144.469 528.128 144.405 528.384 144.405C528.64 144.405 528.768 144.469 528.768 144.597C528.768 146.261 528.875 147.498 529.088 148.309C529.301 149.12 529.728 149.653 530.368 149.909C531.008 150.165 531.947 150.293 533.184 150.293H562.688C564.011 150.293 564.949 150.208 565.504 150.037C566.059 149.866 566.379 149.397 566.464 148.629C566.592 147.861 566.656 146.581 566.656 144.789V141.781C566.656 140.629 566.549 139.69 566.336 138.965C566.123 138.282 565.653 137.792 564.928 137.493C564.245 137.194 563.136 137.045 561.6 137.045C559.893 137.045 557.867 136.938 555.52 136.725C553.173 136.554 550.699 136.256 548.096 135.829C545.536 135.402 543.019 134.826 540.544 134.101C538.112 133.418 535.872 132.544 533.824 131.477C531.819 130.41 530.219 129.152 529.024 127.701C527.829 126.25 527.232 124.565 527.232 122.645ZM528 191.061V164.629C528 164.543 528.128 164.501 528.384 164.501C528.64 164.501 528.768 164.543 528.768 164.629C528.768 166.25 528.875 167.466 529.088 168.277C529.301 169.087 529.728 169.621 530.368 169.877C531.008 170.175 531.947 170.325 533.184 170.325H562.816C564.053 170.325 564.971 170.175 565.568 169.877C566.208 169.621 566.635 169.087 566.848 168.277C567.104 167.466 567.232 166.25 567.232 164.629C567.232 164.543 567.36 164.501 567.616 164.501C567.872 164.501 568 164.543 568 164.629V189.973C568 190.357 567.808 190.549 567.424 190.549L559.68 190.677C559.552 190.677 559.488 190.549 559.488 190.293C559.488 190.079 559.552 189.973 559.68 189.973C561.899 189.973 563.627 189.397 564.864 188.245C566.144 187.093 566.784 185.578 566.784 183.701V179.285C566.784 177.706 566.677 176.511 566.464 175.701C566.251 174.933 565.824 174.399 565.184 174.101C564.587 173.845 563.669 173.717 562.432 173.717H533.44C532.245 173.717 531.349 173.845 530.752 174.101C530.155 174.399 529.749 174.933 529.536 175.701C529.323 176.511 529.216 177.706 529.216 179.285V185.173C529.216 186.879 529.963 188.351 531.456 189.589C532.949 190.826 534.912 191.594 537.344 191.893C537.472 191.893 537.515 192.021 537.472 192.277C537.472 192.533 537.408 192.661 537.28 192.661C536.171 192.49 534.827 192.341 533.248 192.213C531.712 192.127 530.283 192.085 528.96 192.085C528.32 192.085 528 191.743 528 191.061ZM543.04 187.477C544.96 187.477 546.304 187.071 547.072 186.261C547.84 185.45 548.224 184.021 548.224 181.973V172.117H549.44V182.165C549.44 184.127 549.76 185.493 550.4 186.261C551.083 187.029 552.235 187.413 553.856 187.413C553.941 187.413 553.984 187.541 553.984 187.797C553.984 188.053 553.941 188.181 553.856 188.181C552.619 188.181 551.659 188.159 550.976 188.117C550.293 188.117 549.568 188.117 548.8 188.117C547.861 188.117 546.923 188.138 545.984 188.181C545.088 188.223 544.107 188.245 543.04 188.245C542.955 188.245 542.912 188.117 542.912 187.861C542.912 187.605 542.955 187.477 543.04 187.477ZM528 198.754C528 198.668 528.128 198.626 528.384 198.626C528.64 198.626 528.768 198.668 528.768 198.754C528.768 200.375 528.875 201.591 529.088 202.402C529.301 203.212 529.728 203.746 530.368 204.002C531.008 204.3 531.947 204.45 533.184 204.45H562.816C564.053 204.45 564.971 204.3 565.568 204.002C566.208 203.746 566.635 203.212 566.848 202.402C567.104 201.591 567.232 200.375 567.232 198.754C567.232 198.668 567.36 198.626 567.616 198.626C567.872 198.626 568 198.668 568 198.754V225.57C568 225.996 567.808 226.21 567.424 226.21L559.68 226.338C559.552 226.338 559.488 226.21 559.488 225.954C559.488 225.698 559.552 225.57 559.68 225.57C561.899 225.57 563.627 224.994 564.864 223.842C566.144 222.69 566.784 221.175 566.784 219.298V213.41C566.784 211.106 566.528 209.591 566.016 208.866C565.504 208.183 564.416 207.842 562.752 207.842H533.44C532.16 207.842 531.179 208.012 530.496 208.354C529.856 208.738 529.408 209.506 529.152 210.658C528.896 211.81 528.768 213.538 528.768 215.842C528.768 215.97 528.64 216.034 528.384 216.034C528.128 216.034 528 215.97 528 215.842C528 214.476 528.021 212.983 528.064 211.362C528.107 209.783 528.128 208.055 528.128 206.178C528.128 204.812 528.107 203.49 528.064 202.21C528.021 200.93 528 199.778 528 198.754ZM549.696 237.631L550.912 238.591V251.775L549.696 252.223V237.631ZM528.768 268.479C528.768 268.649 528.64 268.735 528.384 268.735C528.128 268.735 528 268.649 528 268.479C528 267.284 528.043 266.047 528.128 264.767C528.213 263.529 528.256 262.335 528.256 261.183C528.256 259.86 528.213 258.708 528.128 257.727C528.043 256.788 528 255.743 528 254.591C528 254.42 528.128 254.335 528.384 254.335C528.64 254.335 528.768 254.42 528.768 254.591C528.768 256.98 529.088 258.473 529.728 259.071C530.368 259.711 531.584 259.625 533.376 258.815L564.48 244.351L565.568 245.567L535.872 233.215C533.269 232.148 531.435 232.063 530.368 232.959C529.301 233.855 528.768 235.753 528.768 238.655C528.768 238.868 528.64 238.975 528.384 238.975C528.128 238.975 528 238.868 528 238.655C528 237.375 528.043 236.201 528.128 235.135C528.213 234.068 528.256 232.724 528.256 231.103C528.256 229.609 528.213 228.393 528.128 227.455C528.043 226.559 528 225.471 528 224.191C528 224.02 528.128 223.934 528.384 223.934C528.64 223.934 528.768 224.02 528.768 224.191C528.768 225.343 528.981 226.345 529.408 227.199C529.835 228.052 530.603 228.841 531.712 229.567C532.821 230.335 534.4 231.145 536.448 231.999L568.64 245.375C568.768 245.46 568.832 245.588 568.832 245.759C568.832 245.972 568.768 246.1 568.64 246.143L536.768 260.991C534.635 261.972 532.971 262.847 531.776 263.615C530.624 264.383 529.835 265.151 529.408 265.919C528.981 266.687 528.768 267.54 528.768 268.479ZM562.688 305.742C563.925 305.742 564.864 305.614 565.504 305.358C566.144 305.102 566.592 304.569 566.848 303.758C567.104 302.947 567.232 301.71 567.232 300.046C567.232 299.918 567.36 299.854 567.616 299.854C567.872 299.854 568 299.918 568 300.046C568 301.027 567.957 302.137 567.872 303.374C567.829 304.654 567.808 306.019 567.808 307.47C567.808 308.835 567.829 310.158 567.872 311.438C567.957 312.718 568 313.849 568 314.83C568 314.958 567.872 315.022 567.616 315.022C567.36 315.022 567.232 314.958 567.232 314.83C567.232 313.209 567.104 311.971 566.848 311.118C566.635 310.307 566.208 309.753 565.568 309.454C564.971 309.198 564.053 309.07 562.816 309.07H533.184C531.947 309.07 531.008 309.198 530.368 309.454C529.728 309.753 529.301 310.307 529.088 311.118C528.875 311.971 528.768 313.209 528.768 314.83C528.768 314.958 528.64 315.022 528.384 315.022C528.128 315.022 528 314.958 528 314.83C528 313.849 528.021 312.718 528.064 311.438C528.107 310.158 528.128 308.835 528.128 307.47C528.128 306.019 528.107 304.654 528.064 303.374C528.021 302.137 528 301.027 528 300.046C528 299.918 528.128 299.854 528.384 299.854C528.64 299.854 528.768 299.918 528.768 300.046C528.768 301.71 528.875 302.947 529.088 303.758C529.301 304.569 529.728 305.102 530.368 305.358C531.008 305.614 531.947 305.742 533.184 305.742H562.688ZM548.224 278.35H549.44V307.15H548.224V278.35ZM533.184 276.814H562.816C564.053 276.814 564.971 276.665 565.568 276.366C566.208 276.11 566.635 275.577 566.848 274.766C567.104 273.955 567.232 272.739 567.232 271.118C567.232 271.033 567.36 270.99 567.616 270.99C567.872 270.99 568 271.033 568 271.118C568 272.142 567.957 273.273 567.872 274.51C567.829 275.79 567.808 277.113 567.808 278.478C567.808 279.971 567.829 281.337 567.872 282.574C567.957 283.811 568 284.921 568 285.902C568 285.987 567.872 286.03 567.616 286.03C567.36 286.03 567.232 285.987 567.232 285.902C567.232 284.281 567.104 283.065 566.848 282.254C566.592 281.443 566.144 280.889 565.504 280.59C564.864 280.334 563.925 280.206 562.688 280.206H533.184C531.947 280.206 531.008 280.334 530.368 280.59C529.728 280.846 529.301 281.379 529.088 282.19C528.875 283.043 528.768 284.281 528.768 285.902C528.768 285.987 528.64 286.03 528.384 286.03C528.128 286.03 528 285.987 528 285.902C528 284.878 528.021 283.747 528.064 282.51C528.107 281.315 528.128 279.971 528.128 278.478C528.128 277.113 528.107 275.79 528.064 274.51C528.021 273.23 528 272.078 528 271.054C528 270.969 528.128 270.926 528.384 270.926C528.64 270.926 528.768 270.969 528.768 271.054C528.768 272.675 528.875 273.891 529.088 274.702C529.301 275.555 529.728 276.11 530.368 276.366C531.008 276.665 531.947 276.814 533.184 276.814ZM566.912 328.77C566.912 326.082 566.272 324.119 564.992 322.882C563.712 321.687 561.429 320.855 558.144 320.386C558.059 320.386 558.016 320.258 558.016 320.002C558.016 319.746 558.059 319.618 558.144 319.618C558.656 319.703 559.403 319.789 560.384 319.874C561.365 320.002 562.411 320.109 563.52 320.194C564.672 320.279 565.76 320.343 566.784 320.386C567.851 320.471 568.725 320.514 569.408 320.514C569.621 320.514 569.728 320.642 569.728 320.898C569.728 321.154 569.621 321.282 569.408 321.282C568.981 321.282 568.661 321.474 568.448 321.858C568.277 322.285 568.149 322.754 568.064 323.266C568.021 323.821 568 324.29 568 324.674C567.872 328.343 567.808 332.631 567.808 337.538C567.808 340.567 567.829 342.957 567.872 344.706C567.957 346.498 568 348.226 568 349.89C568 351.298 568.085 352.386 568.256 353.154C568.469 353.965 568.917 354.477 569.6 354.69C569.771 354.733 569.856 354.861 569.856 355.074C569.856 355.287 569.771 355.394 569.6 355.394C568.96 355.351 568.107 355.287 567.04 355.202C565.973 355.117 564.843 355.053 563.648 355.01C562.496 354.967 561.408 354.925 560.384 354.882C559.403 354.839 558.656 354.818 558.144 354.818C558.059 354.818 558.016 354.69 558.016 354.434C558.016 354.178 558.059 354.05 558.144 354.05C561.429 354.05 563.712 353.495 564.992 352.386C566.272 351.277 566.912 349.25 566.912 346.306C566.912 344.301 566.827 342.786 566.656 341.762C566.528 340.781 566.165 340.119 565.568 339.778C565.013 339.479 564.053 339.33 562.688 339.33H533.184C531.947 339.33 531.008 339.479 530.368 339.778C529.728 340.077 529.301 340.674 529.088 341.57C528.875 342.509 528.768 343.917 528.768 345.794C528.768 345.879 528.64 345.922 528.384 345.922C528.128 345.922 528 345.879 528 345.794C528 344.685 528.021 343.426 528.064 342.018C528.107 340.653 528.128 339.159 528.128 337.538C528.128 336.002 528.107 334.53 528.064 333.122C528.021 331.757 528 330.498 528 329.346C528 329.261 528.128 329.218 528.384 329.218C528.64 329.218 528.768 329.261 528.768 329.346C528.768 331.181 528.875 332.567 529.088 333.506C529.301 334.445 529.728 335.063 530.368 335.362C531.008 335.703 531.947 335.874 533.184 335.874H562.816C564.181 335.874 565.141 335.703 565.696 335.362C566.293 335.021 566.635 334.338 566.72 333.314C566.848 332.29 566.912 330.775 566.912 328.77ZM562.688 394.68C563.925 394.68 564.864 394.552 565.504 394.296C566.144 394.04 566.592 393.506 566.848 392.696C567.104 391.885 567.232 390.648 567.232 388.984C567.232 388.856 567.36 388.792 567.616 388.792C567.872 388.792 568 388.856 568 388.984C568 389.965 567.957 391.074 567.872 392.312C567.829 393.592 567.808 394.957 567.808 396.408C567.808 397.773 567.829 399.096 567.872 400.376C567.957 401.656 568 402.786 568 403.768C568 403.896 567.872 403.96 567.616 403.96C567.36 403.96 567.232 403.896 567.232 403.768C567.232 402.146 567.104 400.909 566.848 400.056C566.635 399.245 566.208 398.69 565.568 398.392C564.971 398.136 564.053 398.008 562.816 398.008H533.184C531.947 398.008 531.008 398.136 530.368 398.392C529.728 398.69 529.301 399.245 529.088 400.056C528.875 400.909 528.768 402.146 528.768 403.768C528.768 403.896 528.64 403.96 528.384 403.96C528.128 403.96 528 403.896 528 403.768C528 402.786 528.021 401.656 528.064 400.376C528.107 399.096 528.128 397.773 528.128 396.408C528.128 394.957 528.107 393.592 528.064 392.312C528.021 391.074 528 389.965 528 388.984C528 388.856 528.128 388.792 528.384 388.792C528.64 388.792 528.768 388.856 528.768 388.984C528.768 390.648 528.875 391.885 529.088 392.696C529.301 393.506 529.728 394.04 530.368 394.296C531.008 394.552 531.947 394.68 533.184 394.68H562.688ZM548.224 367.288H549.44V396.088H548.224V367.288ZM533.184 365.752H562.816C564.053 365.752 564.971 365.602 565.568 365.304C566.208 365.048 566.635 364.514 566.848 363.704C567.104 362.893 567.232 361.677 567.232 360.056C567.232 359.97 567.36 359.928 567.616 359.928C567.872 359.928 568 359.97 568 360.056C568 361.08 567.957 362.21 567.872 363.448C567.829 364.728 567.808 366.05 567.808 367.416C567.808 368.909 567.829 370.274 567.872 371.512C567.957 372.749 568 373.858 568 374.84C568 374.925 567.872 374.968 567.616 374.968C567.36 374.968 567.232 374.925 567.232 374.84C567.232 373.218 567.104 372.002 566.848 371.192C566.592 370.381 566.144 369.826 565.504 369.528C564.864 369.272 563.925 369.144 562.688 369.144H533.184C531.947 369.144 531.008 369.272 530.368 369.528C529.728 369.784 529.301 370.317 529.088 371.128C528.875 371.981 528.768 373.218 528.768 374.84C528.768 374.925 528.64 374.968 528.384 374.968C528.128 374.968 528 374.925 528 374.84C528 373.816 528.021 372.685 528.064 371.448C528.107 370.253 528.128 368.909 528.128 367.416C528.128 366.05 528.107 364.728 528.064 363.448C528.021 362.168 528 361.016 528 359.992C528 359.906 528.128 359.864 528.384 359.864C528.64 359.864 528.768 359.906 528.768 359.992C528.768 361.613 528.875 362.829 529.088 363.64C529.301 364.493 529.728 365.048 530.368 365.304C531.008 365.602 531.947 365.752 533.184 365.752ZM527.232 429.612C527.232 426.54 527.765 423.745 528.832 421.228C529.941 418.753 531.456 416.62 533.376 414.828C535.296 413.078 537.493 411.713 539.968 410.732C542.485 409.793 545.152 409.324 547.968 409.324C551.424 409.324 554.453 409.985 557.056 411.308C559.659 412.673 561.813 414.465 563.52 416.684C565.269 418.902 566.571 421.334 567.424 423.98C568.277 426.625 568.704 429.249 568.704 431.852C568.704 435.009 568.128 437.825 566.976 440.3C565.867 442.817 564.352 444.95 562.432 446.7C560.512 448.449 558.336 449.772 555.904 450.668C553.472 451.606 550.976 452.076 548.416 452.076C545.429 452.076 542.656 451.478 540.096 450.284C537.536 449.089 535.296 447.446 533.376 445.356C531.456 443.308 529.941 440.918 528.832 438.188C527.765 435.5 527.232 432.641 527.232 429.612ZM528.512 431.916C528.512 434.902 529.195 437.612 530.56 440.044C531.968 442.476 534.016 444.396 536.704 445.804C539.435 447.254 542.741 447.98 546.624 447.98C550.677 447.98 554.24 447.19 557.312 445.612C560.427 444.076 562.859 441.9 564.608 439.083C566.4 436.268 567.296 432.961 567.296 429.164C567.296 424.214 565.76 420.353 562.688 417.58C559.616 414.806 555.435 413.42 550.144 413.42C547.157 413.42 544.341 413.846 541.696 414.7C539.093 415.596 536.789 416.854 534.784 418.476C532.821 420.14 531.285 422.102 530.176 424.364C529.067 426.625 528.512 429.142 528.512 431.916ZM568.704 481.62C568.704 483.625 568.491 485.694 568.064 487.828C567.68 489.961 567.104 491.689 566.336 493.012C566.123 493.353 565.931 493.566 565.76 493.652C565.589 493.78 565.269 493.865 564.8 493.908L558.08 494.612C557.995 494.612 557.909 494.505 557.824 494.292C557.781 494.078 557.845 493.95 558.016 493.908C561.472 493.054 563.883 491.284 565.248 488.596C566.656 485.95 567.36 482.793 567.36 479.124C567.36 475.753 566.635 472.809 565.184 470.292C563.776 467.774 561.771 465.812 559.168 464.404C556.608 462.996 553.6 462.292 550.144 462.292C547.072 462.292 544.192 462.782 541.504 463.764C538.816 464.788 536.469 466.174 534.464 467.924C532.459 469.716 530.88 471.742 529.728 474.003C528.576 476.308 528 478.74 528 481.3C528 484.329 528.811 486.996 530.432 489.3C532.053 491.646 534.613 493.374 538.112 494.484C538.283 494.526 538.325 494.654 538.24 494.868C538.197 495.124 538.133 495.252 538.048 495.252L531.2 494.356C530.688 494.27 530.347 494.164 530.176 494.036C530.048 493.95 529.899 493.716 529.728 493.332C528.832 491.284 528.192 489.236 527.808 487.188C527.424 485.182 527.232 483.156 527.232 481.108C527.232 477.054 527.851 473.577 529.088 470.676C530.368 467.774 532.032 465.406 534.08 463.572C536.171 461.78 538.453 460.457 540.928 459.604C543.445 458.75 545.941 458.324 548.416 458.324C551.445 458.324 554.197 458.964 556.672 460.244C559.147 461.524 561.28 463.252 563.072 465.428C564.864 467.646 566.251 470.142 567.232 472.916C568.213 475.732 568.704 478.633 568.704 481.62ZM566.912 509.52C566.912 506.832 566.272 504.869 564.992 503.632C563.712 502.437 561.429 501.605 558.144 501.136C558.059 501.136 558.016 501.008 558.016 500.752C558.016 500.496 558.059 500.368 558.144 500.368C558.656 500.453 559.403 500.539 560.384 500.624C561.365 500.752 562.411 500.859 563.52 500.944C564.672 501.029 565.76 501.093 566.784 501.136C567.851 501.221 568.725 501.264 569.408 501.264C569.621 501.264 569.728 501.392 569.728 501.648C569.728 501.904 569.621 502.032 569.408 502.032C568.981 502.032 568.661 502.224 568.448 502.608C568.277 503.035 568.149 503.504 568.064 504.016C568.021 504.571 568 505.04 568 505.424C567.872 509.093 567.808 513.381 567.808 518.288C567.808 521.317 567.829 523.707 567.872 525.456C567.957 527.248 568 528.976 568 530.64C568 532.048 568.085 533.136 568.256 533.904C568.469 534.715 568.917 535.227 569.6 535.44C569.771 535.483 569.856 535.611 569.856 535.824C569.856 536.037 569.771 536.144 569.6 536.144C568.96 536.101 568.107 536.037 567.04 535.952C565.973 535.867 564.843 535.803 563.648 535.76C562.496 535.717 561.408 535.675 560.384 535.632C559.403 535.589 558.656 535.568 558.144 535.568C558.059 535.568 558.016 535.44 558.016 535.184C558.016 534.928 558.059 534.8 558.144 534.8C561.429 534.8 563.712 534.245 564.992 533.136C566.272 532.027 566.912 530 566.912 527.056C566.912 525.051 566.827 523.536 566.656 522.512C566.528 521.531 566.165 520.869 565.568 520.528C565.013 520.229 564.053 520.08 562.688 520.08H533.184C531.947 520.08 531.008 520.229 530.368 520.528C529.728 520.827 529.301 521.424 529.088 522.32C528.875 523.259 528.768 524.667 528.768 526.544C528.768 526.629 528.64 526.672 528.384 526.672C528.128 526.672 528 526.629 528 526.544C528 525.435 528.021 524.176 528.064 522.768C528.107 521.403 528.128 519.909 528.128 518.288C528.128 516.752 528.107 515.28 528.064 513.872C528.021 512.507 528 511.248 528 510.096C528 510.011 528.128 509.968 528.384 509.968C528.64 509.968 528.768 510.011 528.768 510.096C528.768 511.931 528.875 513.317 529.088 514.256C529.301 515.195 529.728 515.813 530.368 516.112C531.008 516.453 531.947 516.624 533.184 516.624H562.816C564.181 516.624 565.141 516.453 565.696 516.112C566.293 515.771 566.635 515.088 566.72 514.064C566.848 513.04 566.912 511.525 566.912 509.52ZM527.744 557.83C527.744 557.147 527.787 556.251 527.872 555.142C527.915 554.075 527.957 552.966 528 551.814C528.085 550.662 528.128 549.616 528.128 548.678C528.128 547.312 528.107 545.99 528.064 544.71C528.021 543.43 528 542.278 528 541.254C528 541.168 528.128 541.126 528.384 541.126C528.64 541.126 528.768 541.168 528.768 541.254C528.768 542.875 528.875 544.091 529.088 544.902C529.301 545.755 529.728 546.331 530.368 546.63C531.008 546.928 531.947 547.078 533.184 547.078H562.816C564.053 547.078 564.971 546.928 565.568 546.63C566.208 546.374 566.635 545.84 566.848 545.03C567.104 544.219 567.232 543.003 567.232 541.382C567.232 541.254 567.36 541.19 567.616 541.19C567.872 541.19 568 541.254 568 541.382C568 542.363 567.957 543.472 567.872 544.71C567.829 545.947 567.808 547.248 567.808 548.614C567.808 550.107 567.829 551.494 567.872 552.774C567.957 554.054 568 555.163 568 556.102C568 556.23 567.872 556.294 567.616 556.294C567.36 556.294 567.232 556.23 567.232 556.102C567.232 554.48 567.104 553.264 566.848 552.454C566.592 551.643 566.144 551.088 565.504 550.79C564.864 550.534 563.925 550.406 562.688 550.406H533.184C532.245 550.406 531.435 550.555 530.752 550.854C530.112 551.152 529.621 551.728 529.28 552.582C528.939 553.478 528.768 554.8 528.768 556.55C528.768 560.134 529.557 562.715 531.136 564.294C532.757 565.872 535.189 566.662 538.432 566.662C541.248 566.662 543.445 566.214 545.024 565.318C546.645 564.464 547.776 563.248 548.416 561.67C549.099 560.134 549.44 558.363 549.44 556.358C549.44 555.078 549.333 553.819 549.12 552.582C548.907 551.387 548.629 550.192 548.288 548.998L549.504 548.934C549.845 550.342 550.101 551.771 550.272 553.222C550.485 554.672 550.592 556.187 550.592 557.766C550.592 560.155 550.272 562.288 549.632 564.166C549.035 566.086 547.968 567.6 546.432 568.71C544.939 569.819 542.827 570.374 540.096 570.374C537.664 570.374 535.509 569.84 533.632 568.774C531.797 567.75 530.347 566.299 529.28 564.422C528.256 562.544 527.744 560.347 527.744 557.83Z" fill="black"/>
<path d="M294.92 604.24L295.36 603.88C296.88 603.88 298.213 604.173 299.36 604.76C300.507 605.347 301.387 606.147 302 607.16C302.64 608.173 302.96 609.32 302.96 610.6C302.96 612.04 302.627 613.333 301.96 614.48C301.293 615.627 300.373 616.533 299.2 617.2C298.053 617.84 296.76 618.16 295.32 618.16C294.44 618.16 293.467 618.12 292.4 618.04C291.333 617.96 290.333 617.92 289.4 617.92C288.547 617.92 287.72 617.933 286.92 617.96C286.12 617.987 285.4 618 284.76 618C284.707 618 284.68 617.92 284.68 617.76C284.68 617.6 284.707 617.52 284.76 617.52C285.773 617.52 286.533 617.453 287.04 617.32C287.573 617.187 287.933 616.92 288.12 616.52C288.307 616.12 288.4 615.533 288.4 614.76V596.24C288.4 595.467 288.307 594.893 288.12 594.52C287.96 594.12 287.627 593.853 287.12 593.72C286.613 593.56 285.853 593.48 284.84 593.48C284.76 593.48 284.72 593.4 284.72 593.24C284.72 593.08 284.76 593 284.84 593C285.453 593 286.147 593.027 286.92 593.08C287.72 593.107 288.547 593.12 289.4 593.12C290.093 593.12 290.893 593.08 291.8 593C292.733 592.92 293.493 592.88 294.08 592.88C295.653 592.88 296.907 593.133 297.84 593.64C298.8 594.12 299.493 594.76 299.92 595.56C300.347 596.36 300.56 597.24 300.56 598.2C300.56 599.72 300.013 601 298.92 602.04C297.853 603.08 296.52 603.813 294.92 604.24ZM293.16 593.4C292.52 593.4 292 593.453 291.6 593.56C291.2 593.64 290.907 593.88 290.72 594.28C290.56 594.68 290.48 595.36 290.48 596.32V604.16L289.28 603.84C290.133 603.893 290.84 603.933 291.4 603.96C291.96 603.96 292.28 603.96 292.36 603.96C294.573 603.96 296.133 603.44 297.04 602.4C297.947 601.333 298.4 600.027 298.4 598.48C298.4 597.573 298.227 596.733 297.88 595.96C297.56 595.187 297.013 594.573 296.24 594.12C295.493 593.64 294.467 593.4 293.16 593.4ZM294.76 617.52C296.787 617.52 298.267 617 299.2 615.96C300.16 614.893 300.64 613.44 300.64 611.6C300.64 609.6 300.027 607.96 298.8 606.68C297.573 605.4 295.893 604.747 293.76 604.72C293.013 604.693 292.28 604.693 291.56 604.72C290.84 604.747 290.12 604.813 289.4 604.92L290.48 604.48V614.76C290.48 615.427 290.587 615.973 290.8 616.4C291.013 616.8 291.427 617.093 292.04 617.28C292.653 617.44 293.56 617.52 294.76 617.52ZM331.233 617.52C331.473 617.52 331.606 617.547 331.633 617.6C331.686 617.627 331.713 617.76 331.713 618C331.713 618.347 331.673 618.733 331.593 619.16C331.54 619.587 331.486 620.2 331.433 621C331.38 621.827 331.353 623.013 331.353 624.56C331.353 624.667 331.273 624.72 331.113 624.72C330.953 624.72 330.873 624.667 330.873 624.56C330.873 622.267 330.42 620.6 329.513 619.56C328.606 618.52 327.033 618 324.793 618H311.673C310.766 618 309.926 618.187 309.153 618.56C308.38 618.933 307.766 619.587 307.313 620.52C306.86 621.48 306.633 622.827 306.633 624.56C306.633 624.667 306.553 624.72 306.393 624.72C306.233 624.72 306.153 624.667 306.153 624.56C306.153 623.413 306.126 622.493 306.073 621.8C306.046 621.107 306.006 620.547 305.953 620.12C305.9 619.693 305.846 619.32 305.793 619C305.766 618.707 305.753 618.373 305.753 618C305.753 617.787 305.766 617.653 305.793 617.6C305.846 617.547 305.966 617.52 306.153 617.52C307.3 617.52 308.326 617.147 309.233 616.4C310.14 615.627 310.94 614.613 311.633 613.36C312.353 612.08 312.966 610.68 313.473 609.16C313.98 607.613 314.393 606.067 314.713 604.52C315.033 602.947 315.26 601.48 315.393 600.12C315.553 598.733 315.633 597.587 315.633 596.68C315.633 596.04 315.58 595.48 315.473 595C315.366 594.52 315.033 594.147 314.473 593.88C313.913 593.613 312.966 593.48 311.633 593.48C311.58 593.48 311.553 593.4 311.553 593.24C311.553 593.08 311.58 593 311.633 593C311.793 593 312.233 593 312.953 593C313.7 593 314.62 593 315.713 593C316.833 593 318.033 593 319.313 593C320.593 593 321.86 593 323.113 593C324.393 593 325.566 593 326.633 593C327.726 593 328.62 593 329.313 593C330.006 593 330.406 593 330.513 593C330.566 593 330.593 593.08 330.593 593.24C330.593 593.4 330.566 593.48 330.513 593.48C329.5 593.48 328.726 593.56 328.193 593.72C327.686 593.853 327.34 594.12 327.153 594.52C326.993 594.893 326.913 595.467 326.913 596.24V614.76C326.913 615.427 326.926 615.96 326.953 616.36C327.006 616.733 327.153 617 327.393 617.16C327.66 617.32 328.086 617.427 328.673 617.48C329.26 617.507 330.113 617.52 331.233 617.52ZM324.793 614.68V596.32C324.793 595.493 324.74 594.907 324.633 594.56C324.553 594.213 324.273 594.013 323.793 593.96C323.313 593.88 322.513 593.84 321.393 593.84H319.513C318.74 593.84 318.166 593.973 317.793 594.24C317.446 594.48 317.206 594.947 317.073 595.64C316.966 596.333 316.86 597.373 316.753 598.76C316.726 599.133 316.646 599.787 316.513 600.72C316.38 601.653 316.193 602.747 315.953 604C315.713 605.253 315.406 606.573 315.033 607.96C314.66 609.347 314.22 610.693 313.713 612C313.206 613.28 312.62 614.427 311.953 615.44C311.286 616.427 310.526 617.173 309.673 617.68L309.713 617.16H321.193C322.393 617.16 323.233 617.12 323.713 617.04C324.22 616.96 324.526 616.747 324.633 616.4C324.74 616.053 324.793 615.48 324.793 614.68ZM347.445 618.48C345.525 618.48 343.778 618.147 342.205 617.48C340.658 616.787 339.325 615.84 338.205 614.64C337.111 613.44 336.258 612.067 335.645 610.52C335.058 608.947 334.765 607.28 334.765 605.52C334.765 603.36 335.178 601.467 336.005 599.84C336.858 598.213 337.978 596.867 339.365 595.8C340.751 594.707 342.271 593.893 343.925 593.36C345.578 592.827 347.218 592.56 348.845 592.56C350.818 592.56 352.578 592.92 354.125 593.64C355.698 594.333 357.031 595.28 358.125 596.48C359.218 597.68 360.045 599.04 360.605 600.56C361.191 602.08 361.485 603.64 361.485 605.24C361.485 607.107 361.111 608.84 360.365 610.44C359.618 612.04 358.591 613.44 357.285 614.64C356.005 615.84 354.511 616.787 352.805 617.48C351.125 618.147 349.338 618.48 347.445 618.48ZM348.885 617.68C350.751 617.68 352.445 617.253 353.965 616.4C355.485 615.52 356.685 614.24 357.565 612.56C358.471 610.853 358.925 608.787 358.925 606.36C358.925 603.827 358.431 601.6 357.445 599.68C356.485 597.733 355.125 596.213 353.365 595.12C351.605 594 349.538 593.44 347.165 593.44C344.071 593.44 341.658 594.4 339.925 596.32C338.191 598.24 337.325 600.853 337.325 604.16C337.325 606.027 337.591 607.787 338.125 609.44C338.685 611.067 339.471 612.507 340.485 613.76C341.525 614.987 342.751 615.947 344.165 616.64C345.578 617.333 347.151 617.68 348.885 617.68ZM379.092 618C379.039 618 379.012 617.92 379.012 617.76C379.012 617.6 379.039 617.52 379.092 617.52C380.186 617.52 380.866 617.413 381.132 617.2C381.426 616.96 381.372 616.547 380.972 615.96L367.972 596.32C367.279 595.28 366.586 594.547 365.892 594.12C365.199 593.693 364.372 593.48 363.412 593.48C363.359 593.48 363.332 593.4 363.332 593.24C363.332 593.08 363.359 593 363.412 593C363.892 593 364.386 593.027 364.892 593.08C365.426 593.107 365.919 593.12 366.372 593.12C367.439 593.12 368.412 593.107 369.292 593.08C370.199 593.027 370.986 593 371.652 593C371.732 593 371.772 593.08 371.772 593.24C371.772 593.4 371.732 593.48 371.652 593.48C370.559 593.48 369.879 593.6 369.612 593.84C369.346 594.08 369.399 594.493 369.772 595.08L382.812 614.68C383.506 615.747 384.226 616.493 384.972 616.92C385.719 617.32 386.666 617.52 387.812 617.52C387.866 617.52 387.892 617.6 387.892 617.76C387.892 617.92 387.866 618 387.812 618C387.279 618 386.692 617.987 386.052 617.96C385.412 617.933 384.746 617.92 384.052 617.92C383.012 617.92 382.092 617.933 381.292 617.96C380.519 617.987 379.786 618 379.092 618ZM363.292 618C363.212 618 363.172 617.92 363.172 617.76C363.172 617.6 363.212 617.52 363.292 617.52C364.199 617.52 365.079 617.253 365.932 616.72C366.812 616.16 367.626 615.36 368.372 614.32L374.692 605.64L375.132 606.04L369.212 614.32C368.466 615.36 368.239 616.16 368.532 616.72C368.826 617.253 369.599 617.52 370.852 617.52C370.932 617.52 370.972 617.6 370.972 617.76C370.972 617.92 370.932 618 370.852 618C370.159 618 369.492 617.987 368.852 617.96C368.239 617.933 367.412 617.92 366.372 617.92C365.706 617.92 365.172 617.933 364.772 617.96C364.372 617.987 363.879 618 363.292 618ZM375.732 605.36L375.292 605L380.932 597.04C381.759 595.867 382.052 594.987 381.812 594.4C381.572 593.787 380.826 593.48 379.572 593.48C379.492 593.48 379.452 593.4 379.452 593.24C379.452 593.08 379.492 593 379.572 593C380.266 593 380.932 593.027 381.572 593.08C382.212 593.107 383.039 593.12 384.052 593.12C384.719 593.12 385.252 593.107 385.652 593.08C386.052 593.027 386.546 593 387.132 593C387.212 593 387.252 593.08 387.252 593.24C387.252 593.4 387.212 593.48 387.132 593.48C386.226 593.48 385.319 593.8 384.412 594.44C383.506 595.053 382.626 595.933 381.772 597.08L375.732 605.36ZM411.745 596.32C411.745 595.547 411.665 594.96 411.505 594.56C411.345 594.16 411.012 593.88 410.505 593.72C409.998 593.56 409.225 593.48 408.185 593.48C408.105 593.48 408.065 593.4 408.065 593.24C408.065 593.08 408.105 593 408.185 593C408.798 593 409.492 593.027 410.265 593.08C411.065 593.107 411.918 593.12 412.825 593.12C413.678 593.12 414.505 593.107 415.305 593.08C416.105 593.027 416.812 593 417.425 593C417.505 593 417.545 593.08 417.545 593.24C417.545 593.4 417.505 593.48 417.425 593.48C416.412 593.48 415.638 593.56 415.105 593.72C414.598 593.853 414.252 594.12 414.065 594.52C413.905 594.893 413.825 595.467 413.825 596.24V614.76C413.825 615.533 413.905 616.12 414.065 616.52C414.252 616.92 414.598 617.187 415.105 617.32C415.638 617.453 416.412 617.52 417.425 617.52C417.505 617.52 417.545 617.6 417.545 617.76C417.545 617.92 417.505 618 417.425 618C416.812 618 416.105 617.987 415.305 617.96C414.505 617.933 413.678 617.92 412.825 617.92C411.918 617.92 411.065 617.933 410.265 617.96C409.492 617.987 408.798 618 408.185 618C408.105 618 408.065 617.92 408.065 617.76C408.065 617.6 408.105 617.52 408.185 617.52C409.225 617.52 409.998 617.453 410.505 617.32C411.012 617.187 411.345 616.92 411.505 616.52C411.665 616.12 411.745 615.533 411.745 614.76V596.32ZM394.625 605.36V604.6H412.625V605.36H394.625ZM393.665 614.76V596.24C393.665 595.467 393.572 594.893 393.385 594.52C393.225 594.12 392.892 593.853 392.385 593.72C391.878 593.56 391.118 593.48 390.105 593.48C390.052 593.48 390.025 593.4 390.025 593.24C390.025 593.08 390.052 593 390.105 593C390.745 593 391.452 593.027 392.225 593.08C393.025 593.107 393.852 593.12 394.705 593.12C395.638 593.12 396.492 593.107 397.265 593.08C398.038 593.027 398.732 593 399.345 593C399.398 593 399.425 593.08 399.425 593.24C399.425 593.4 399.398 593.48 399.345 593.48C398.332 593.48 397.572 593.56 397.065 593.72C396.558 593.88 396.212 594.16 396.025 594.56C395.865 594.96 395.785 595.547 395.785 596.32V614.76C395.785 615.533 395.865 616.12 396.025 616.52C396.185 616.92 396.518 617.187 397.025 617.32C397.558 617.453 398.332 617.52 399.345 617.52C399.398 617.52 399.425 617.6 399.425 617.76C399.425 617.92 399.398 618 399.345 618C398.705 618 397.998 617.987 397.225 617.96C396.478 617.933 395.638 617.92 394.705 617.92C393.852 617.92 393.025 617.933 392.225 617.96C391.425 617.987 390.705 618 390.065 618C390.012 618 389.985 617.92 389.985 617.76C389.985 617.6 390.012 617.52 390.065 617.52C391.078 617.52 391.838 617.453 392.345 617.32C392.878 617.187 393.225 616.92 393.385 616.52C393.572 616.12 393.665 615.533 393.665 614.76ZM433.578 618.48C431.658 618.48 429.911 618.147 428.338 617.48C426.791 616.787 425.458 615.84 424.338 614.64C423.244 613.44 422.391 612.067 421.778 610.52C421.191 608.947 420.898 607.28 420.898 605.52C420.898 603.36 421.311 601.467 422.138 599.84C422.991 598.213 424.111 596.867 425.498 595.8C426.884 594.707 428.404 593.893 430.058 593.36C431.711 592.827 433.351 592.56 434.978 592.56C436.951 592.56 438.711 592.92 440.258 593.64C441.831 594.333 443.164 595.28 444.258 596.48C445.351 597.68 446.178 599.04 446.738 600.56C447.324 602.08 447.618 603.64 447.618 605.24C447.618 607.107 447.244 608.84 446.498 610.44C445.751 612.04 444.724 613.44 443.418 614.64C442.138 615.84 440.644 616.787 438.938 617.48C437.258 618.147 435.471 618.48 433.578 618.48ZM435.018 617.68C436.884 617.68 438.578 617.253 440.098 616.4C441.618 615.52 442.818 614.24 443.698 612.56C444.604 610.853 445.058 608.787 445.058 606.36C445.058 603.827 444.564 601.6 443.578 599.68C442.618 597.733 441.258 596.213 439.497 595.12C437.738 594 435.671 593.44 433.298 593.44C430.204 593.44 427.791 594.4 426.058 596.32C424.324 598.24 423.458 600.853 423.458 604.16C423.458 606.027 423.724 607.787 424.258 609.44C424.818 611.067 425.604 612.507 426.618 613.76C427.658 614.987 428.884 615.947 430.298 616.64C431.711 617.333 433.284 617.68 435.018 617.68ZM461.483 604.24L461.923 603.88C463.443 603.88 464.776 604.173 465.923 604.76C467.069 605.347 467.949 606.147 468.563 607.16C469.203 608.173 469.523 609.32 469.523 610.6C469.523 612.04 469.189 613.333 468.523 614.48C467.856 615.627 466.936 616.533 465.763 617.2C464.616 617.84 463.323 618.16 461.883 618.16C461.003 618.16 460.029 618.12 458.963 618.04C457.896 617.96 456.896 617.92 455.963 617.92C455.109 617.92 454.283 617.933 453.483 617.96C452.683 617.987 451.963 618 451.323 618C451.269 618 451.243 617.92 451.243 617.76C451.243 617.6 451.269 617.52 451.323 617.52C452.336 617.52 453.096 617.453 453.603 617.32C454.136 617.187 454.496 616.92 454.683 616.52C454.869 616.12 454.963 615.533 454.963 614.76V596.24C454.963 595.467 454.869 594.893 454.683 594.52C454.523 594.12 454.189 593.853 453.683 593.72C453.176 593.56 452.416 593.48 451.403 593.48C451.323 593.48 451.283 593.4 451.283 593.24C451.283 593.08 451.323 593 451.403 593C452.016 593 452.709 593.027 453.483 593.08C454.283 593.107 455.109 593.12 455.963 593.12C456.656 593.12 457.456 593.08 458.363 593C459.296 592.92 460.056 592.88 460.643 592.88C462.216 592.88 463.469 593.133 464.403 593.64C465.363 594.12 466.056 594.76 466.483 595.56C466.909 596.36 467.123 597.24 467.123 598.2C467.123 599.72 466.576 601 465.483 602.04C464.416 603.08 463.083 603.813 461.483 604.24ZM459.723 593.4C459.083 593.4 458.563 593.453 458.163 593.56C457.763 593.64 457.469 593.88 457.283 594.28C457.123 594.68 457.043 595.36 457.043 596.32V604.16L455.843 603.84C456.696 603.893 457.403 603.933 457.963 603.96C458.523 603.96 458.843 603.96 458.923 603.96C461.136 603.96 462.696 603.44 463.603 602.4C464.509 601.333 464.963 600.027 464.963 598.48C464.963 597.573 464.789 596.733 464.443 595.96C464.123 595.187 463.576 594.573 462.803 594.12C462.056 593.64 461.029 593.4 459.723 593.4ZM461.322 617.52C463.349 617.52 464.829 617 465.763 615.96C466.723 614.893 467.203 613.44 467.203 611.6C467.203 609.6 466.589 607.96 465.363 606.68C464.136 605.4 462.456 604.747 460.323 604.72C459.576 604.693 458.843 604.693 458.123 604.72C457.403 604.747 456.683 604.813 455.963 604.92L457.043 604.48V614.76C457.043 615.427 457.149 615.973 457.363 616.4C457.576 616.8 457.989 617.093 458.603 617.28C459.216 617.44 460.123 617.52 461.322 617.52ZM489.796 618H473.276C473.222 618 473.196 617.92 473.196 617.76C473.196 617.6 473.222 617.52 473.276 617.52C474.289 617.52 475.049 617.453 475.556 617.32C476.062 617.187 476.396 616.92 476.556 616.52C476.742 616.12 476.836 615.533 476.836 614.76V596.24C476.836 595.467 476.742 594.893 476.556 594.52C476.396 594.12 476.062 593.853 475.556 593.72C475.049 593.56 474.289 593.48 473.276 593.48C473.222 593.48 473.196 593.4 473.196 593.24C473.196 593.08 473.222 593 473.276 593H489.116C489.356 593 489.476 593.12 489.476 593.36L489.556 598.2C489.556 598.28 489.476 598.32 489.316 598.32C489.182 598.32 489.116 598.28 489.116 598.2C489.116 596.813 488.756 595.733 488.036 594.96C487.316 594.16 486.369 593.76 485.196 593.76H482.436C481.449 593.76 480.702 593.827 480.196 593.96C479.716 594.093 479.382 594.36 479.196 594.76C479.036 595.133 478.956 595.707 478.956 596.48V614.6C478.956 615.347 479.036 615.907 479.196 616.28C479.382 616.653 479.716 616.907 480.196 617.04C480.702 617.173 481.449 617.24 482.436 617.24H486.116C487.182 617.24 488.102 616.773 488.876 615.84C489.649 614.907 490.129 613.68 490.316 612.16C490.316 612.08 490.396 612.053 490.556 612.08C490.716 612.08 490.796 612.12 490.796 612.2C490.689 612.893 490.596 613.733 490.516 614.72C490.462 615.68 490.436 616.573 490.436 617.4C490.436 617.8 490.222 618 489.796 618ZM487.556 608.6C487.556 607.4 487.302 606.56 486.796 606.08C486.289 605.6 485.396 605.36 484.116 605.36H477.956V604.6H484.236C485.462 604.6 486.316 604.4 486.796 604C487.276 603.573 487.516 602.853 487.516 601.84C487.516 601.787 487.596 601.76 487.756 601.76C487.916 601.76 487.996 601.787 487.996 601.84C487.996 602.613 487.982 603.213 487.956 603.64C487.956 604.067 487.956 604.52 487.956 605C487.956 605.587 487.969 606.173 487.996 606.76C488.022 607.32 488.036 607.933 488.036 608.6C488.036 608.653 487.956 608.68 487.796 608.68C487.636 608.68 487.556 608.653 487.556 608.6ZM515.964 596.32C515.964 595.547 515.884 594.96 515.724 594.56C515.564 594.16 515.23 593.88 514.724 593.72C514.217 593.56 513.444 593.48 512.404 593.48C512.324 593.48 512.284 593.4 512.284 593.24C512.284 593.08 512.324 593 512.404 593C513.017 593 513.71 593.027 514.484 593.08C515.284 593.107 516.137 593.12 517.044 593.12C517.897 593.12 518.724 593.107 519.524 593.08C520.324 593.027 521.03 593 521.644 593C521.724 593 521.764 593.08 521.764 593.24C521.764 593.4 521.724 593.48 521.644 593.48C520.63 593.48 519.857 593.56 519.324 593.72C518.817 593.853 518.47 594.12 518.284 594.52C518.124 594.893 518.044 595.467 518.044 596.24V614.76C518.044 615.533 518.124 616.12 518.284 616.52C518.47 616.92 518.817 617.187 519.324 617.32C519.857 617.453 520.63 617.52 521.644 617.52C521.724 617.52 521.764 617.6 521.764 617.76C521.764 617.92 521.724 618 521.644 618C521.03 618 520.324 617.987 519.524 617.96C518.724 617.933 517.897 617.92 517.044 617.92C516.137 617.92 515.284 617.933 514.484 617.96C513.71 617.987 513.017 618 512.404 618C512.324 618 512.284 617.92 512.284 617.76C512.284 617.6 512.324 617.52 512.404 617.52C513.444 617.52 514.217 617.453 514.724 617.32C515.23 617.187 515.564 616.92 515.724 616.52C515.884 616.12 515.964 615.533 515.964 614.76V596.32ZM498.844 605.36V604.6H516.844V605.36H498.844ZM497.884 614.76V596.24C497.884 595.467 497.79 594.893 497.604 594.52C497.444 594.12 497.11 593.853 496.604 593.72C496.097 593.56 495.337 593.48 494.324 593.48C494.27 593.48 494.244 593.4 494.244 593.24C494.244 593.08 494.27 593 494.324 593C494.964 593 495.67 593.027 496.444 593.08C497.244 593.107 498.07 593.12 498.924 593.12C499.857 593.12 500.71 593.107 501.484 593.08C502.257 593.027 502.95 593 503.564 593C503.617 593 503.644 593.08 503.644 593.24C503.644 593.4 503.617 593.48 503.564 593.48C502.55 593.48 501.79 593.56 501.284 593.72C500.777 593.88 500.43 594.16 500.244 594.56C500.084 594.96 500.004 595.547 500.004 596.32V614.76C500.004 615.533 500.084 616.12 500.244 616.52C500.404 616.92 500.737 617.187 501.244 617.32C501.777 617.453 502.55 617.52 503.564 617.52C503.617 617.52 503.644 617.6 503.644 617.76C503.644 617.92 503.617 618 503.564 618C502.924 618 502.217 617.987 501.444 617.96C500.697 617.933 499.857 617.92 498.924 617.92C498.07 617.92 497.244 617.933 496.444 617.96C495.644 617.987 494.924 618 494.284 618C494.23 618 494.204 617.92 494.204 617.76C494.204 617.6 494.23 617.52 494.284 617.52C495.297 617.52 496.057 617.453 496.564 617.32C497.097 617.187 497.444 616.92 497.604 616.52C497.79 616.12 497.884 615.533 497.884 614.76ZM529.716 615.08L529.116 614.48L546.676 595.72L547.316 596.32L529.716 615.08ZM524.596 618C524.543 618 524.516 617.92 524.516 617.76C524.516 617.6 524.543 617.52 524.596 617.52C525.61 617.52 526.37 617.453 526.876 617.32C527.41 617.187 527.756 616.92 527.916 616.52C528.103 616.12 528.196 615.533 528.196 614.76V596.24C528.196 595.467 528.103 594.893 527.916 594.52C527.756 594.12 527.423 593.853 526.916 593.72C526.41 593.56 525.65 593.48 524.636 593.48C524.583 593.48 524.556 593.4 524.556 593.24C524.556 593.08 524.583 593 524.636 593C525.276 593 525.983 593.027 526.756 593.08C527.556 593.107 528.383 593.12 529.236 593.12C530.17 593.12 531.023 593.107 531.796 593.08C532.57 593.027 533.263 593 533.876 593C533.93 593 533.956 593.08 533.956 593.24C533.956 593.4 533.93 593.48 533.876 593.48C532.863 593.48 532.103 593.56 531.596 593.72C531.09 593.88 530.743 594.16 530.556 594.56C530.396 594.96 530.316 595.547 530.316 596.32V614.76C530.316 615.533 530.396 616.12 530.556 616.52C530.716 616.92 531.05 617.187 531.556 617.32C532.09 617.453 532.863 617.52 533.876 617.52C533.93 617.52 533.956 617.6 533.956 617.76C533.956 617.92 533.93 618 533.876 618C533.236 618 532.53 617.987 531.756 617.96C531.01 617.933 530.17 617.92 529.236 617.92C528.383 617.92 527.556 617.933 526.756 617.96C525.956 617.987 525.236 618 524.596 618ZM542.236 618C542.183 618 542.156 617.92 542.156 617.76C542.156 617.6 542.183 617.52 542.236 617.52C543.276 617.52 544.05 617.453 544.556 617.32C545.063 617.187 545.396 616.92 545.556 616.52C545.716 616.12 545.796 615.533 545.796 614.76V596.32C545.796 595.547 545.716 594.96 545.556 594.56C545.396 594.16 545.063 593.88 544.556 593.72C544.05 593.56 543.276 593.48 542.236 593.48C542.183 593.48 542.156 593.4 542.156 593.24C542.156 593.08 542.183 593 542.236 593C542.876 593 543.583 593.027 544.356 593.08C545.13 593.107 545.97 593.12 546.876 593.12C547.73 593.12 548.556 593.107 549.356 593.08C550.156 593.027 550.876 593 551.516 593C551.57 593 551.596 593.08 551.596 593.24C551.596 593.4 551.57 593.48 551.516 593.48C550.503 593.48 549.73 593.56 549.196 593.72C548.69 593.853 548.343 594.12 548.156 594.52C547.996 594.893 547.916 595.467 547.916 596.24V614.76C547.916 615.533 547.996 616.12 548.156 616.52C548.343 616.92 548.69 617.187 549.196 617.32C549.73 617.453 550.503 617.52 551.516 617.52C551.57 617.52 551.596 617.6 551.596 617.76C551.596 617.92 551.57 618 551.516 618C550.876 618 550.156 617.987 549.356 617.96C548.556 617.933 547.73 617.92 546.876 617.92C545.97 617.92 545.13 617.933 544.356 617.96C543.583 617.987 542.876 618 542.236 618ZM571.28 618H554.76C554.707 618 554.68 617.92 554.68 617.76C554.68 617.6 554.707 617.52 554.76 617.52C555.773 617.52 556.533 617.453 557.04 617.32C557.547 617.187 557.88 616.92 558.04 616.52C558.227 616.12 558.32 615.533 558.32 614.76V596.24C558.32 595.467 558.227 594.893 558.04 594.52C557.88 594.12 557.547 593.853 557.04 593.72C556.533 593.56 555.773 593.48 554.76 593.48C554.707 593.48 554.68 593.4 554.68 593.24C554.68 593.08 554.707 593 554.76 593H570.6C570.84 593 570.96 593.12 570.96 593.36L571.04 598.2C571.04 598.28 570.96 598.32 570.8 598.32C570.667 598.32 570.6 598.28 570.6 598.2C570.6 596.813 570.24 595.733 569.52 594.96C568.8 594.16 567.853 593.76 566.68 593.76H563.92C562.933 593.76 562.187 593.827 561.68 593.96C561.2 594.093 560.867 594.36 560.68 594.76C560.52 595.133 560.44 595.707 560.44 596.48V614.6C560.44 615.347 560.52 615.907 560.68 616.28C560.867 616.653 561.2 616.907 561.68 617.04C562.187 617.173 562.933 617.24 563.92 617.24H567.6C568.667 617.24 569.587 616.773 570.36 615.84C571.133 614.907 571.613 613.68 571.8 612.16C571.8 612.08 571.88 612.053 572.04 612.08C572.2 612.08 572.28 612.12 572.28 612.2C572.173 612.893 572.08 613.733 572 614.72C571.947 615.68 571.92 616.573 571.92 617.4C571.92 617.8 571.707 618 571.28 618ZM569.04 608.6C569.04 607.4 568.787 606.56 568.28 606.08C567.773 605.6 566.88 605.36 565.6 605.36H559.44V604.6H565.72C566.947 604.6 567.8 604.4 568.28 604C568.76 603.573 569 602.853 569 601.84C569 601.787 569.08 601.76 569.24 601.76C569.4 601.76 569.48 601.787 569.48 601.84C569.48 602.613 569.467 603.213 569.44 603.64C569.44 604.067 569.44 604.52 569.44 605C569.44 605.587 569.453 606.173 569.48 606.76C569.507 607.32 569.52 607.933 569.52 608.6C569.52 608.653 569.44 608.68 569.28 608.68C569.12 608.68 569.04 608.653 569.04 608.6Z" fill="black"/>
</svg>
