<svg width="30" height="30" viewBox="0 0 30 30" fill="none" xmlns="http://www.w3.org/2000/svg">
<path fill-rule="evenodd" clip-rule="evenodd" d="M1.75403 14.9999C1.75403 11.4868 3.14959 8.11768 5.63369 5.63357C8.1178 3.14946 11.487 1.75391 15 1.75391C18.5131 1.75391 21.8823 3.14946 24.3664 5.63357C26.8505 8.11768 28.246 11.4868 28.246 14.9999C28.246 18.513 26.8505 21.8821 24.3664 24.3662C21.8823 26.8503 18.5131 28.2459 15 28.2459C11.487 28.2459 8.1178 26.8503 5.63369 24.3662C3.14959 21.8821 1.75403 18.513 1.75403 14.9999ZM15 3.65391C11.9909 3.65391 9.10498 4.84928 6.97719 6.97707C4.84941 9.10486 3.65403 11.9908 3.65403 14.9999C3.65403 18.0091 4.84941 20.895 6.97719 23.0227C9.10498 25.1505 11.9909 26.3459 15 26.3459C18.0092 26.3459 20.8951 25.1505 23.0229 23.0227C25.1507 20.895 26.346 18.0091 26.346 14.9999C26.346 11.9908 25.1507 9.10486 23.0229 6.97707C20.8951 4.84928 18.0092 3.65391 15 3.65391ZM19.708 10.2939C19.8955 10.4814 20.0008 10.7357 20.0008 11.0009C20.0008 11.2661 19.8955 11.5204 19.708 11.7079L16.414 14.9999L19.708 18.2919C19.8958 18.4797 20.0013 18.7344 20.0013 18.9999C20.0013 19.2655 19.8958 19.5201 19.708 19.7079C19.5203 19.8957 19.2656 20.0012 19 20.0012C18.7345 20.0012 18.4798 19.8957 18.292 19.7079L15 16.4139L11.708 19.7079C11.6151 19.8009 11.5047 19.8746 11.3832 19.925C11.2617 19.9753 11.1315 20.0012 11 20.0012C10.8685 20.0012 10.7383 19.9753 10.6169 19.925C10.4954 19.8746 10.385 19.8009 10.292 19.7079C10.1991 19.6149 10.1253 19.5046 10.075 19.3831C10.0247 19.2616 9.99876 19.1314 9.99876 18.9999C9.99876 18.8684 10.0247 18.7382 10.075 18.6167C10.1253 18.4953 10.1991 18.3849 10.292 18.2919L13.586 14.9999L10.292 11.7079C10.1043 11.5201 9.99876 11.2655 9.99876 10.9999C9.99876 10.7344 10.1043 10.4797 10.292 10.2919C10.4798 10.1041 10.7345 9.99864 11 9.99864C11.2656 9.99864 11.5203 10.1041 11.708 10.2919L15 13.5859L18.292 10.2919C18.3849 10.1988 18.4953 10.1249 18.6168 10.0745C18.7383 10.0241 18.8685 9.99812 19 9.99812C19.1316 9.99812 19.2618 10.0241 19.3833 10.0745C19.5048 10.1249 19.6151 10.2008 19.708 10.2939Z" fill="black" fill-opacity="0.74"/>
</svg>
